<?xml version="1.0" encoding="UTF-8" standalone="no"?>
<svg
   height="8.5in"
   viewBox="305 -1040 1056 816"
   width="11in"
   version="1.1"
   id="svg1004"
   sodipodi:docname="smooth-mc-cube.svg"
   inkscape:version="1.1.2 (b8e25be8, 2022-02-05)"
   xmlns:inkscape="http://www.inkscape.org/namespaces/inkscape"
   xmlns:sodipodi="http://sodipodi.sourceforge.net/DTD/sodipodi-0.dtd"
   xmlns="http://www.w3.org/2000/svg"
   xmlns:svg="http://www.w3.org/2000/svg">
  <defs
     id="defs1008" />
  <sodipodi:namedview
     id="namedview1006"
     pagecolor="#505050"
     bordercolor="#eeeeee"
     borderopacity="1"
     inkscape:pageshadow="0"
     inkscape:pageopacity="0"
     inkscape:pagecheckerboard="0"
     showgrid="false"
     units="in"
     inkscape:zoom="0.57504857"
     inkscape:cx="581.68999"
     inkscape:cy="393.01028"
     inkscape:window-width="1312"
     inkscape:window-height="922"
     inkscape:window-x="0"
     inkscape:window-y="32"
     inkscape:window-maximized="0"
     inkscape:current-layer="svg1004"
     inkscape:document-units="in" />
  <g
     id="g1621"
     transform="matrix(0.93507925,0,0,0.93507925,54.077699,-41.028511)"
     style="stroke-width:1.06943">
    <path
       d="M 824.70124,-420.84253 C 832.92804,-421.24773 843.06476,-419.25085 848.67545,-424.53087 C 838.03278,-422.98056 826.09931,-422.74718 815.48039,-424.53087 C 812.93764,-423.7155 821.46466,-421.73196 824.60109,-420.8926 Z M 849.29017,-423.91614 C 849.35514,-424.43453 850.86287,-426.32213 849.29017,-423.91614 Z"
       fill-rule="evenodd"
       fill="#000000"
       stroke="#ffffff"
       id="path824"
       style="stroke-width:0.808387;stroke-miterlimit:4;stroke-dasharray:none" />
    <path
       d="M 824.08651,-423.91614 C 838.37221,-423.63141 852.24651,-424.33989 864.04353,-430.06338 C 868.49418,-431.85902 872.75823,-437.7708 865.27298,-434.36644 C 855.79649,-431.86029 846.10641,-429.86975 835.76626,-429.44865 C 826.27879,-428.08787 815.48759,-428.77091 806.25954,-430.06338 C 802.65356,-431.6448 794.85494,-432.66659 801.95647,-428.83393 C 808.92958,-426.02974 816.23818,-425.01999 824.08651,-423.91614 Z M 798.26813,-432.52227 C 797.08815,-430.77484 794.74337,-434.53738 798.26813,-432.52227 Z"
       fill-rule="evenodd"
       fill="#000000"
       stroke="#ffffff"
       id="path826"
       style="stroke-width:0.808387;stroke-miterlimit:4;stroke-dasharray:none" />
    <path
       d="M 814.25094,-429.44865 C 828.12164,-429.14127 841.67015,-429.61174 854.20796,-432.52227 C 863.7418,-434.14066 872.95299,-436.538 881.25579,-441.1284 C 888.1545,-444.78255 883.58421,-446.73764 878.79689,-443.58729 C 868.99952,-442.14558 859.79555,-439.27129 849.9049,-438.05478 C 840.03674,-435.4199 829.59078,-434.18001 818.554,-434.36644 C 814.63881,-433.3838 809.64272,-434.99293 805.03009,-434.36644 C 800.37844,-435.5388 795.38492,-435.88583 790.89145,-437.44006 C 791.59761,-434.65684 797.9919,-433.23217 801.34175,-431.90755 C 805.49811,-430.68617 809.85533,-430.4979 814.25094,-429.44865 Z M 790.27673,-438.05478 C 789.46228,-436.79107 786.39352,-439.80543 790.27673,-438.05478 Z"
       fill-rule="evenodd"
       fill="#000000"
       stroke="#ffffff"
       id="path828"
       style="stroke-width:0.808387;stroke-miterlimit:4;stroke-dasharray:none" />
    <path
       d="M 816.09511,-434.36644 C 823.09196,-435.40347 830.72763,-434.89823 837.61043,-436.21061 C 846.81992,-437.38261 855.43995,-439.97769 864.65826,-441.1284 C 873.4048,-443.74299 882.83951,-444.69623 891.09136,-448.50508 C 893.4133,-449.55065 903.03247,-453.24541 898.46804,-455.26703 C 889.56219,-452.45747 880.16421,-450.83603 870.80549,-449.1198 C 860.85653,-446.84976 850.83957,-444.74392 840.68405,-442.97257 C 832.7837,-441.23351 824.75714,-439.79916 816.09511,-439.89895 C 808.30457,-438.14152 799.86194,-440.10856 792.1209,-440.51367 C 788.71141,-442.10106 783.28065,-441.97482 781.6706,-443.58729 C 781.58362,-442.65478 788.29746,-438.38729 792.1209,-438.05478 C 799.04894,-435.45244 806.76272,-434.74703 814.86566,-434.98116 L 815.99496,-434.41651 Z M 900.31221,-455.88176 H 900.92693 Z"
       fill-rule="evenodd"
       fill="#000000"
       stroke="#ffffff"
       id="path830"
       style="stroke-width:0.808387;stroke-miterlimit:4;stroke-dasharray:none" />
    <path
       d="M 802.5712,-439.89895 C 814.35722,-439.47262 825.30798,-441.06277 836.38098,-442.35784 C 845.00176,-444.66132 854.03595,-445.96675 862.81409,-447.89035 C 871.75124,-449.92474 880.83932,-451.59475 889.86191,-453.42286 C 899.1338,-456.20349 909.08618,-457.3413 916.29502,-465.10261 C 913.54982,-466.40364 909.10244,-462.7424 905.23,-463.25844 C 896.81796,-460.94569 887.90723,-459.83693 879.41162,-457.72593 C 869.35389,-455.71849 859.28471,-453.73867 849.29017,-451.57869 C 839.27431,-449.67508 829.61341,-446.91452 819.16873,-446.04618 C 808.06035,-444.15772 795.2629,-444.44663 784.1295,-446.04618 C 781.25893,-447.08745 771.98014,-449.14921 778.59699,-445.43146 C 785.94758,-441.97374 794.08416,-441.02199 802.5712,-439.89895 Z M 775.52337,-448.50508 C 774.84989,-447.73495 771.93492,-449.87553 775.52337,-448.50508 Z"
       fill-rule="evenodd"
       fill="#000000"
       stroke="#ffffff"
       id="path832"
       style="stroke-width:0.808387;stroke-miterlimit:4;stroke-dasharray:none" />
    <path
       d="M 792.73562,-445.43146 C 805.34088,-445.00607 817.38879,-445.92626 829.0043,-447.89035 C 837.99368,-449.79864 846.91338,-451.87516 856.05213,-453.42286 C 864.46416,-455.73561 873.37491,-456.84437 881.87051,-458.95537 C 891.90479,-461.01941 902.0326,-462.85767 911.99196,-465.10261 C 918.76256,-467.82316 927.18864,-468.72731 931.6631,-475.55291 C 923.19831,-474.06711 915.17619,-471.51262 906.45944,-470.63512 C 898.44694,-468.55212 890.08281,-467.31799 881.87051,-465.71733 C 872.88485,-463.80003 863.93189,-461.80383 854.82268,-460.18482 C 844.91383,-457.61305 834.68008,-455.82564 824.70124,-453.42286 C 812.99674,-450.97403 800.74347,-449.85001 787.81784,-450.34925 C 780.82124,-450.31261 774.5272,-451.97214 768.14669,-453.42286 C 763.76399,-455.72995 768.68954,-452.07708 773.06448,-449.73452 C 779.32617,-447.40811 785.79512,-446.55303 792.73562,-445.43146 Z"
       fill-rule="evenodd"
       fill="#000000"
       stroke="#ffffff"
       id="path834"
       style="stroke-width:0.808387;stroke-miterlimit:4;stroke-dasharray:none" />
    <path
       d="M 782.90005,-450.96397 C 796.0101,-450.80398 809.09919,-450.69463 821.0129,-453.42286 C 830.15772,-454.95589 838.86452,-457.5464 848.06073,-458.95537 C 856.27073,-461.26118 864.86654,-462.63556 873.26438,-464.48788 C 883.12615,-466.26879 892.68323,-468.78532 902.7711,-470.02039 C 911.18841,-472.3204 920.14299,-473.32336 928.58949,-475.55291 C 934.9383,-478.13743 943.56769,-479.3 947.03119,-486.0032 C 937.27971,-483.25641 927.12054,-481.49389 916.90974,-479.85597 C 907.16893,-477.78302 897.17965,-476.30994 887.40302,-474.32346 C 877.3225,-472.37105 867.31668,-470.2383 857.28158,-468.17622 C 848.27828,-466.09661 839.35664,-463.81987 830.23375,-462.02899 C 820.82877,-459.63997 811.41658,-457.26834 801.34175,-456.49648 C 793.60897,-455.40318 785.27697,-454.79701 777.36754,-455.88176 C 771.29136,-455.77157 765.38629,-458.345 760.15529,-458.34065 C 756.79438,-461.05745 761.94269,-458.6769 768.95098,-456.19487 C 773.60067,-454.45124 778.25036,-452.7076 782.90005,-450.96397 Z M 761.99946,-457.1112 C 767.91106,-453.70878 774.54946,-452.06102 781.6706,-451.57869 C 775.11355,-453.42286 768.55651,-455.26703 761.99946,-457.1112 Z"
       fill-rule="evenodd"
       fill="#000000"
       stroke="#ffffff"
       id="path836"
       style="stroke-width:0.808387;stroke-miterlimit:4;stroke-dasharray:none" />
    <path
       d="M 781.6706,-455.88176 C 792.08095,-455.80845 801.99425,-456.93515 811.79205,-458.34065 C 821.65628,-460.52545 831.50421,-462.74963 841.29877,-465.10261 C 851.55049,-467.34131 861.67792,-469.88009 872.03494,-471.86456 C 881.87142,-473.70655 891.49527,-476.06187 901.54166,-477.39708 C 910.45004,-479.29602 919.46374,-480.94067 928.58949,-482.31486 C 938.72242,-484.6706 949.25521,-486.06097 958.09621,-491.53571 C 965.02106,-495.27088 960.46338,-496.96652 955.63731,-493.99461 C 946.68396,-492.90384 938.31477,-490.40276 929.20421,-489.69154 C 921.03371,-487.70017 912.40608,-486.81244 904.00055,-485.38848 C 894.19257,-483.47768 884.22337,-481.95613 874.49383,-479.85597 C 864.35012,-477.8512 854.5716,-474.96477 844.37239,-473.09401 C 834.90591,-470.23873 825.13965,-468.10719 815.48039,-465.71733 C 806.5625,-463.55157 797.62438,-461.43464 787.81784,-461.41427 C 779.24201,-459.73733 769.8285,-461.34634 761.38473,-462.02899 C 757.32505,-463.11624 752.71902,-464.06829 752.13073,-464.48788 C 750.40007,-465.022 758.27037,-459.49955 761.38473,-459.5701 C 767.61763,-456.97635 774.67818,-457.06707 781.6706,-455.88176 Z"
       fill-rule="evenodd"
       fill="#000000"
       stroke="#ffffff"
       id="path838"
       style="stroke-width:0.808387;stroke-miterlimit:4;stroke-dasharray:none" />
    <path
       d="M 771.22031,-461.41427 C 783.22072,-460.96504 794.54619,-462.14527 805.64481,-463.87316 C 814.82843,-466.21705 824.08707,-468.37979 833.30736,-470.63512 C 844.0473,-473.58904 855.02469,-475.96971 865.8877,-478.62652 C 875.47572,-480.57363 884.9209,-482.86561 894.7797,-484.15903 C 904.2199,-486.25813 914.02831,-487.46828 923.6717,-489.07682 C 933.92599,-490.8995 944.28434,-492.47096 954.40787,-494.60933 C 962.74374,-496.76645 971.31233,-498.36173 977.76735,-505.05963 C 974.33958,-506.58307 969.33107,-502.69137 964.85816,-503.21546 C 957.13246,-501.13966 948.87361,-500.35096 940.88395,-498.91239 C 930.84266,-497.48 920.8038,-496.04173 910.76251,-494.60933 C 901.26827,-493.34029 891.87489,-491.8278 882.48523,-490.30627 C 872.34004,-488.10019 862.2273,-485.81572 852.36379,-482.92959 C 841.92749,-480.02711 831.61103,-476.83526 821.0129,-474.32346 C 810.88717,-471.78058 800.96854,-468.73776 790.27673,-467.5615 C 781.20488,-465.80259 771.14155,-466.43732 761.38473,-466.33205 C 756.28527,-467.41266 750.96605,-467.96275 746.01665,-469.40567 C 746.72278,-466.62246 753.11711,-465.19779 756.46694,-463.87316 C 761.22281,-462.60338 766.18952,-462.40933 771.22031,-461.41427 Z M 745.40192,-470.02039 C 744.22193,-468.27294 741.87716,-472.03553 745.40192,-470.02039 Z"
       fill-rule="evenodd"
       fill="#000000"
       stroke="#ffffff"
       id="path840"
       style="stroke-width:0.808387;stroke-miterlimit:4;stroke-dasharray:none" />
    <path
       d="M 761.38473,-466.94678 C 775.25817,-466.63279 788.83476,-467.03547 801.34175,-470.02039 C 811.25836,-472.28364 821.01401,-474.93551 830.84847,-477.39708 C 841.66505,-480.57581 852.56559,-483.5518 863.42881,-486.61793 C 873.53911,-488.99313 883.67471,-491.30727 894.16498,-492.76516 C 903.14674,-494.07714 912.00053,-495.69805 921.21281,-496.4535 C 928.79665,-498.17219 936.86453,-498.72233 944.57229,-500.14184 C 954.72466,-501.7159 964.84984,-503.35561 974.69374,-505.67435 C 980.82409,-508.03603 988.30364,-509.35805 992.52072,-514.8952 C 988.41389,-516.24529 984.21017,-512.5621 979.61152,-513.05103 C 971.66791,-511.00659 963.37857,-509.79685 955.02259,-508.74797 C 945.53457,-507.17414 935.88904,-505.98058 926.13059,-505.05963 C 917.02057,-503.97244 907.81871,-503.10693 898.46804,-502.60073 C 889.35297,-501.4057 879.86421,-501.11281 871.42021,-498.29767 C 860.68397,-495.29964 850.60751,-490.70882 840.06932,-487.23265 C 829.34955,-483.82024 818.61326,-480.44767 807.48898,-478.0118 C 797.74473,-475.45245 788.03527,-472.80914 777.36754,-472.47929 C 772.3018,-471.43731 766.6578,-471.79132 761.38473,-471.24984 C 755.34841,-472.33724 748.69725,-471.94029 742.94303,-473.70874 C 738.16457,-474.5102 733.56701,-476.80144 739.86941,-473.09401 C 746.17049,-468.95239 753.81737,-468.45871 761.38473,-466.94678 Z M 992.52072,-516.12465 H 993.13544 Z"
       fill-rule="evenodd"
       fill="#000000"
       stroke="#ffffff"
       id="path842"
       style="stroke-width:0.808387;stroke-miterlimit:4;stroke-dasharray:none" />
    <path
       d="M 761.38473,-471.86456 C 770.49209,-472.46348 779.80638,-472.56286 788.43256,-474.32346 C 799.41464,-475.99319 809.67689,-479.40076 820.39817,-481.70014 C 829.83078,-484.75724 839.44468,-487.3766 848.67545,-490.92099 C 859.02673,-494.43856 868.78885,-499.37848 880.02634,-500.75656 C 887.50241,-502.32562 895.32623,-503.05516 903.38583,-503.21546 C 909.75952,-504.27285 916.4074,-504.66829 923.05698,-505.05963 C 931.1281,-506.38641 939.48462,-507.02414 947.64591,-508.13324 C 956.65834,-509.57608 965.78241,-510.7494 974.69374,-512.43631 C 985.65997,-514.67412 996.84561,-516.3822 1006.0446,-522.8866 C 1011.9718,-528.43745 1003.0062,-523.82471 999.8974,-524.11605 C 991.79892,-521.74589 983.28941,-520.36806 974.69374,-519.19826 C 965.89881,-517.43524 956.83915,-516.31133 947.64591,-515.50992 C 936.90792,-514.10568 925.85007,-513.47365 914.45085,-513.66575 C 910.16143,-514.64414 902.90189,-515.01571 904.61527,-521.65716 C 907.37837,-528.75344 910.62056,-537.08421 907.68889,-545.01664 C 907.25523,-549.69734 904.70674,-553.82708 899.08276,-552.39333 C 893.38542,-553.1048 887.63656,-553.6919 881.87051,-554.2375 C 878.85009,-550.22437 872.37201,-549.12136 868.3466,-547.47554 C 878.31511,-545.16716 888.89718,-536.68347 888.01774,-525.3455 C 884.48308,-514.75698 873.5143,-507.88197 862.81409,-506.9038 C 857.68223,-505.27082 850.12977,-507.33978 845.60183,-505.67435 C 839.26689,-507.08686 852.60285,-505.49027 849.29017,-500.75656 C 840.19721,-493.67128 829.14531,-491.31529 818.554,-487.84737 C 807.8787,-484.7374 796.97785,-482.17195 785.97367,-479.85597 C 774.36473,-477.67112 762.33393,-476.50471 749.70499,-476.78235 C 743.31505,-477.92056 736.51903,-478.07839 730.64856,-480.47069 C 725.36494,-481.86704 732.59526,-478.28324 736.18107,-476.16763 C 743.77216,-473.97174 751.48764,-472.07614 760.15529,-472.47929 L 761.28459,-471.91463 Z"
       fill-rule="evenodd"
       fill="#000000"
       stroke="#ffffff"
       id="path844"
       style="stroke-width:0.808387;stroke-miterlimit:4;stroke-dasharray:none" />
    <path
       d="M 749.70499,-477.39708 C 761.70254,-476.95475 772.87021,-478.51596 784.1295,-479.85597 C 793.23969,-482.37711 802.75183,-483.92788 811.79205,-486.61793 C 823.00318,-489.45888 833.88973,-493.08335 844.37239,-497.68295 C 849.73875,-499.78343 850.6852,-504.7281 844.37239,-505.67435 C 840.11347,-504.06013 835.89544,-499.92648 830.84847,-498.91239 C 821.56697,-495.20073 811.78457,-492.69834 801.95647,-490.30627 C 792.01813,-488.0106 782.09638,-485.67488 771.83503,-484.15903 C 760.25748,-482.09796 747.09095,-481.72154 734.95163,-482.92959 C 730.63941,-483.78382 725.84431,-485.1604 722.04244,-485.38848 C 720.19025,-488.75523 724.03377,-482.46615 728.80439,-481.70014 C 735.31479,-479.00782 742.36529,-478.5043 749.70499,-477.39708 Z"
       fill-rule="evenodd"
       fill="#000000"
       stroke="#ffffff"
       id="path846"
       style="stroke-width:0.808387;stroke-miterlimit:4;stroke-dasharray:none" />
    <path
       d="M 739.86941,-482.92959 C 752.67848,-482.50686 764.92617,-483.43945 776.75282,-485.38848 C 786.77166,-487.69472 796.99276,-489.51264 806.87426,-492.15044 C 818.26399,-495.2598 829.84349,-497.91094 840.06932,-503.83018 C 846.16873,-507.00737 838.4275,-511.62201 835.15154,-507.51852 C 826.0348,-503.20415 816.19983,-500.6238 806.25954,-498.29767 C 796.23803,-495.5032 785.82263,-493.65964 775.52337,-491.53571 C 763.25372,-488.76228 750.4096,-487.37574 736.7958,-487.84737 C 730.2261,-489.04628 723.2793,-489.33476 717.12465,-491.53571 C 709.65122,-494.92817 715.67575,-488.82094 719.58354,-487.84737 C 725.8222,-484.84316 732.72044,-484.16578 739.86941,-482.92959 Z M 712.20686,-492.76516 V -493.37988 Z"
       fill-rule="evenodd"
       fill="#000000"
       stroke="#ffffff"
       id="path848"
       style="stroke-width:0.808387;stroke-miterlimit:4;stroke-dasharray:none" />
    <path
       d="M 736.7958,-488.4621 C 749.5228,-487.94771 761.45351,-489.35574 773.06448,-491.53571 C 782.67048,-493.64432 792.35836,-495.55528 801.95647,-497.68295 C 813.45564,-500.61295 824.9748,-503.49466 835.76626,-508.13324 C 841.41733,-508.52117 841.89106,-518.1093 835.76626,-513.66575 C 826.99375,-510.41422 818.05773,-507.55751 808.71843,-505.67435 C 798.70868,-502.85147 788.22578,-501.17089 777.98226,-498.91239 C 766.08342,-496.23312 753.72717,-494.65816 740.48414,-495.22405 C 730.06843,-495.25783 720.34428,-496.96119 710.97742,-499.52712 C 708.34576,-500.90007 699.1772,-504.81377 704.21546,-498.91239 C 712.09859,-491.90964 722.35072,-490.62613 732.49273,-489.07682 C 733.93701,-488.92174 735.56817,-489.51979 736.7958,-488.4621 Z M 702.37129,-503.21546 H 701.75657 Z"
       fill-rule="evenodd"
       fill="#000000"
       stroke="#ffffff"
       id="path850"
       style="stroke-width:0.808387;stroke-miterlimit:4;stroke-dasharray:none" />
    <path
       d="M 733.72218,-495.83878 C 747.99056,-495.56073 762.04255,-495.80506 774.90865,-498.91239 C 785.0162,-500.79955 794.88038,-503.27428 805.03009,-505.05963 C 814.65829,-507.9343 824.68632,-509.84365 833.92209,-513.66575 C 836.44537,-514.9711 845.2785,-517.49253 841.29877,-521.04243 C 837.1378,-521.38509 832.41204,-517.89647 827.77485,-517.35409 C 819.01351,-514.48546 809.93548,-512.38135 800.72703,-510.59214 C 791.22629,-508.63921 781.94901,-506.14679 771.83503,-505.67435 C 765.57746,-504.33661 759.00313,-503.76361 752.16388,-503.83018 C 744.82227,-501.97332 737.01347,-504.25435 729.41912,-503.83018 C 721.12052,-505.42741 712.56022,-506.39285 704.83018,-509.36269 C 701.02755,-510.04221 696.35021,-514.17176 693.76516,-514.28048 C 695.02975,-504.72297 705.9601,-502.09122 713.43631,-499.52712 C 719.89411,-497.48559 726.7585,-497.09287 733.72218,-495.83878 Z"
       fill-rule="evenodd"
       fill="#000000"
       stroke="#ffffff"
       id="path852"
       style="stroke-width:0.808387;stroke-miterlimit:4;stroke-dasharray:none" />
    <path
       d="M 738.02524,-503.83018 C 749.52205,-503.40249 760.20134,-504.94845 771.22031,-505.67435 C 778.35132,-507.00221 785.64789,-507.93036 792.73562,-509.36269 C 801.79037,-511.31809 810.84433,-513.27537 819.78345,-515.50992 C 828.98135,-518.55407 838.85426,-519.9686 846.83128,-525.96022 C 847.53377,-531.18786 839.85053,-527.04261 836.99571,-525.96022 C 826.57587,-523.4278 816.39086,-520.32843 805.64481,-518.58354 C 797.92931,-516.688 789.86964,-515.62338 781.6706,-514.8952 C 772.85343,-513.80058 763.94802,-512.91903 754.62277,-513.05103 C 746.11167,-511.32994 736.87158,-513.14357 728.18967,-513.05103 C 719.89108,-514.64826 711.33078,-515.6137 703.60074,-518.58354 C 697.18218,-520.42255 691.66119,-524.42852 686.38848,-529.03384 C 687.46146,-518.452 697.7536,-511.3579 707.28908,-509.36269 C 715.54532,-506.38405 724.46202,-504.99989 733.72218,-504.4449 C 735.16645,-504.28982 736.79762,-504.88787 738.02524,-503.83018 Z"
       fill-rule="evenodd"
       fill="#000000"
       stroke="#ffffff"
       id="path854"
       style="stroke-width:0.808387;stroke-miterlimit:4;stroke-dasharray:none" />
    <path
       d="M 844.37239,-506.9038 C 858.92649,-506.41607 873.16545,-506.68912 883.09996,-517.35409 C 888.15949,-522.88682 889.21864,-532.22412 883.09996,-537.63996 C 879.17679,-542.90744 873.0594,-546.50645 866.50243,-546.86081 C 862.57048,-546.54522 867.74676,-541.25998 860.35519,-540.09886 C 855.3958,-537.70003 853.05364,-538.31224 854.20796,-533.3369 C 851.5533,-530.47194 842.93896,-530.44197 848.06073,-526.57494 C 843.46919,-522.25333 841.33749,-522.98163 842.52822,-517.96882 C 838.96797,-515.708 840.68808,-510.12306 842.52822,-508.74797 C 844.0044,-508.31716 842.07638,-506.72009 844.37239,-506.9038 Z"
       fill-rule="evenodd"
       fill="#000000"
       stroke="#ffffff"
       id="path856"
       style="stroke-width:0.808387;stroke-miterlimit:4;stroke-dasharray:none" />
    <path
       d="M 736.18107,-513.05103 C 748.83831,-512.58505 760.72114,-513.98865 773.06448,-514.28048 C 779.48858,-515.42106 786.26728,-515.70558 792.73562,-516.73937 C 803.00411,-518.23798 812.92913,-520.56581 822.85707,-522.8866 C 833.58962,-525.89353 844.64256,-528.12691 854.20796,-533.95162 C 854.05603,-539.59761 847.63566,-534.4898 844.37239,-534.56635 C 834.62512,-531.39958 824.46624,-529.22652 814.25094,-527.18967 C 805.18688,-525.78662 796.17371,-524.26068 786.58839,-524.11605 C 779.54916,-522.89154 772.035,-522.81366 764.45835,-522.8866 C 755.7434,-521.46034 745.93427,-522.67566 736.7958,-522.27188 C 730.56845,-523.3928 723.83725,-523.29729 717.73937,-524.73077 C 704.51148,-527.02041 692.33666,-531.85238 682.08542,-541.3283 C 676.42475,-546.19599 680.42614,-536.60413 682.70014,-534.56635 C 690.17194,-524.11718 701.21714,-518.65837 712.82159,-516.73937 C 720.09226,-514.24543 728.25923,-514.38144 736.18107,-513.05103 Z"
       fill-rule="evenodd"
       fill="#000000"
       stroke="#ffffff"
       id="path858"
       style="stroke-width:0.808387;stroke-miterlimit:4;stroke-dasharray:none" />
    <path
       d="M 914.45085,-514.28048 C 926.96989,-513.85834 938.71644,-515.30118 950.71953,-516.12465 C 959.02977,-517.57373 967.62779,-518.32808 975.92318,-519.81299 C 986.10867,-521.51197 996.18299,-523.47938 1006.0446,-525.96022 C 1012.0245,-528.19199 1019.2454,-529.6396 1023.2569,-535.18107 C 1020.5804,-536.31878 1015.8922,-533.22306 1012.1919,-533.3369 C 1003.9611,-531.28618 995.5995,-529.55126 986.9882,-528.41911 C 978.37282,-526.71732 969.64678,-525.28268 960.5551,-524.73077 C 953.71628,-523.31222 946.26129,-523.38124 939.03978,-522.8866 C 932.36665,-523.2896 924.27981,-522.20205 920.59808,-528.41911 C 920.93883,-536.28394 924.93975,-542.63267 923.6717,-551.16388 C 922.96405,-554.68349 923.31462,-560.36312 919.98336,-561.61418 C 915.06118,-560.4369 906.49157,-562.5385 905.23,-556.69639 C 905.71901,-548.72538 911.57476,-541.78054 908.91834,-533.3369 C 908.68389,-527.64808 903.42004,-522.67549 905.84472,-516.73937 C 908.49923,-515.1684 911.36441,-515.14828 914.45085,-514.28048 Z"
       fill-rule="evenodd"
       fill="#000000"
       stroke="#ffffff"
       id="path860"
       style="stroke-width:0.808387;stroke-miterlimit:4;stroke-dasharray:none" />
    <path
       d="M 736.7958,-522.8866 C 750.56001,-522.5114 763.81485,-523.3659 777.36754,-523.50133 C 783.51933,-524.59975 790.16355,-524.50933 796.42396,-525.3455 C 806.49785,-526.40941 816.35302,-528.00134 825.93068,-530.26328 C 836.38757,-532.62138 846.61673,-535.52928 856.66685,-538.86941 C 859.06946,-540.08014 868.93322,-543.33092 862.81409,-545.63137 C 853.05627,-542.98477 843.46597,-539.93371 833.30736,-538.25469 C 825.66948,-536.17176 817.45517,-535.48046 809.33315,-534.56635 C 802.85462,-533.96699 796.49089,-533.09044 789.66201,-533.3369 C 781.88961,-531.90365 772.92177,-533.35647 765.07307,-532.10745 C 756.35037,-532.52563 747.63553,-532.96277 738.63997,-532.72218 C 732.23036,-533.89777 725.18573,-533.54026 718.96882,-535.18107 C 707.08413,-536.80567 696.57879,-541.76033 686.38848,-547.47554 C 681.14244,-550.16651 676.58918,-554.52999 671.63512,-557.92584 C 673.05168,-546.41676 684.9767,-539.24989 693.76516,-533.3369 C 702.86508,-528.69217 712.57601,-525.52255 723.27188,-524.73077 C 727.31553,-523.11931 732.45153,-524.16445 736.7958,-522.8866 Z"
       fill-rule="evenodd"
       fill="#000000"
       stroke="#ffffff"
       id="path862"
       style="stroke-width:0.808387;stroke-miterlimit:4;stroke-dasharray:none" />
    <path
       d="M 932.27783,-523.50133 C 943.53444,-523.1588 954.03538,-524.64068 964.85816,-525.3455 C 972.52957,-526.85281 980.50401,-527.62852 988.21765,-529.03384 C 998.30288,-530.97491 1008.4549,-532.75454 1018.3391,-535.18107 C 1025.4301,-537.4042 1033.6503,-539.12873 1038.625,-545.01664 C 1033.7062,-546.14729 1028.6903,-542.23325 1023.2569,-542.55775 C 1015.3816,-540.6381 1007.4843,-538.77182 999.28267,-537.63996 C 990.29448,-535.64392 981.06637,-534.22709 971.62012,-533.3369 C 961.95865,-531.80717 951.89275,-531.25382 941.49868,-531.49273 C 936.72134,-532.31944 929.98908,-533.95954 931.6631,-540.71358 C 933.90158,-546.93754 936.15651,-553.15472 935.96617,-560.38473 C 934.82828,-564.08505 934.99163,-570.07429 929.20421,-568.37613 C 926.43483,-566.81474 918.64187,-568.7622 921.82753,-563.45835 C 923.11136,-556.97914 925.34698,-550.51445 924.28642,-543.7872 C 924.47026,-537.65048 917.80421,-530.65649 923.6717,-525.3455 C 926.48006,-524.54712 929.32857,-524.33797 932.27783,-523.50133 Z M 1038.625,-546.24609 H 1039.2397 Z"
       fill-rule="evenodd"
       fill="#000000"
       stroke="#ffffff"
       id="path864"
       style="stroke-width:0.808387;stroke-miterlimit:4;stroke-dasharray:none" />
    <path
       d="M 941.49868,-532.10745 C 954.34715,-531.5896 966.29185,-533.25365 978.38208,-534.56635 C 988.10834,-535.97484 997.61341,-537.9173 1007.2741,-539.48413 C 1017.2025,-542.00855 1027.5789,-543.45183 1037.3955,-546.24609 C 1042.8954,-548.45301 1050.7606,-550.47297 1052.1489,-557.31111 C 1043.9039,-553.98043 1035.3603,-551.37033 1026.3305,-549.93443 C 1016.1772,-547.66304 1005.8999,-545.69106 995.59433,-543.7872 C 985.40228,-542.42898 975.56097,-540.224 964.85816,-540.09886 C 957.95465,-539.07937 949.28702,-538.88558 942.72812,-540.71358 C 935.46737,-544.15553 941.54505,-551.69345 942.72812,-556.69639 C 944.0931,-559.8808 944.84458,-566.87308 939.03978,-565.30252 C 935.55231,-568.49793 933.8736,-570.60197 935.96617,-564.07307 C 938.13783,-555.10273 933.89672,-547.06713 932.27783,-538.86941 C 931.3302,-533.19524 937.76394,-533.34385 941.49868,-532.10745 Z"
       fill-rule="evenodd"
       fill="#000000"
       stroke="#ffffff"
       id="path866"
       style="stroke-width:0.808387;stroke-miterlimit:4;stroke-dasharray:none" />
    <path
       d="M 758.31112,-532.72218 C 768.66521,-532.66466 778.53309,-533.78094 789.04728,-533.3369 C 794.56445,-534.27848 800.43675,-534.36263 806.25954,-534.56635 C 812.72616,-535.6043 819.27044,-536.45474 825.93068,-537.02524 C 835.18147,-539.20697 844.63193,-540.90664 853.59324,-543.7872 C 863.1571,-546.23764 872.67862,-548.79024 881.25579,-553.62277 C 879.67107,-558.00738 873.61945,-553.39629 870.19077,-553.62277 C 860.97963,-550.85065 851.54521,-548.61756 841.91349,-546.86081 C 832.03951,-545.4343 822.23284,-543.8453 811.79205,-543.7872 C 806.08875,-542.80033 799.91646,-542.94569 793.96507,-542.55775 C 776.56348,-542.51047 759.09233,-542.29526 742.32831,-543.7872 C 732.71582,-544.56583 723.25202,-545.70345 714.05103,-547.47554 C 703.52897,-550.90572 693.02699,-554.38441 683.31487,-559.77001 C 676.59092,-563.17545 670.34065,-567.72446 664.25844,-572.6792 C 665.26193,-561.63303 676.84424,-554.46027 685.15904,-548.70498 C 695.12763,-543.44389 704.96154,-537.85765 716.50993,-536.41052 C 724.59097,-534.11831 733.62272,-534.12132 742.32831,-533.3369 C 747.58447,-532.97692 753.30916,-534.08812 758.31112,-532.72218 Z"
       fill-rule="evenodd"
       fill="#000000"
       stroke="#ffffff"
       id="path868"
       style="stroke-width:0.808387;stroke-miterlimit:4;stroke-dasharray:none" />
    <path
       d="M 947.64591,-540.09886 C 960.27468,-539.61672 972.12199,-541.0212 983.91459,-542.55775 C 994.03675,-544.20469 1004.2207,-545.70257 1014.036,-548.09026 C 1024.2702,-549.8766 1034.4032,-551.90702 1044.1575,-554.85222 C 1050.3671,-557.24278 1059.6773,-560.77241 1060.1403,-568.99086 C 1052.7209,-565.03085 1044.9783,-561.8513 1036.7808,-559.77001 C 1028.1246,-556.85237 1019.0169,-555.02488 1009.733,-553.62277 C 1001.7893,-551.57834 993.50003,-550.36859 985.14403,-549.31971 C 974.23104,-547.63836 963.09525,-546.49489 951.33425,-546.86081 C 947.18106,-547.1448 941.67612,-550.49645 944.57229,-555.46694 C 947.29172,-561.3994 943.93317,-561.65612 943.34285,-555.46694 C 941.4871,-551.40775 936.38315,-543.42126 943.34285,-541.3283 C 944.26126,-539.81605 946.53864,-541.5757 947.64591,-540.09886 Z"
       fill-rule="evenodd"
       fill="#000000"
       stroke="#ffffff"
       id="path870"
       style="stroke-width:0.808387;stroke-miterlimit:4;stroke-dasharray:none" />
    <path
       d="M 758.92584,-543.17247 C 777.92338,-543.22975 797.15551,-542.72068 815.48039,-544.40192 C 824.67054,-545.00588 833.59812,-546.24377 842.52822,-547.47554 C 852.31461,-549.35356 861.77591,-552.01645 871.42021,-554.2375 C 881.65982,-557.12016 891.80001,-560.24283 902.15638,-562.84362 C 911.1059,-566.04246 920.80326,-567.43583 930.43366,-568.99086 C 938.6641,-569.933 946.6555,-571.45224 955.02259,-572.06447 C 962.6349,-573.71444 970.6214,-574.46102 978.38208,-575.75281 C 987.49129,-577.37182 996.68778,-578.78001 1005.4299,-581.28532 C 1015.629,-584.30102 1025.5305,-588.03514 1034.9366,-592.96507 C 1044.7724,-598.49092 1056.4475,-605.34946 1061.3697,-616.32455 C 1062.1519,-621.20373 1058.9633,-625.35082 1055.8372,-628.0043 C 1055.1048,-616.0097 1043.6253,-607.69933 1034.3219,-601.57119 C 1023.4842,-595.11505 1012.0262,-590.15697 999.8974,-586.81783 C 990.88902,-583.76109 981.24909,-582.22908 971.62012,-580.6706 C 962.24792,-578.90205 952.82235,-577.26229 943.34285,-575.75281 C 933.06373,-573.78518 922.74986,-571.90142 912.60668,-569.60558 C 903.52493,-567.71538 894.75277,-565.07776 885.55885,-563.45835 C 877.19164,-560.83248 868.3977,-559.23682 859.74047,-557.31111 C 850.82384,-556.04681 842.09875,-554.32009 832.69264,-554.2375 C 825.42788,-553.06282 817.73081,-552.93178 809.94788,-553.00805 C 800.41379,-551.58059 789.78417,-552.79801 779.82643,-552.39333 C 774.02189,-553.63049 767.3179,-552.69616 761.38473,-553.62277 C 752.3771,-553.96779 743.86227,-555.50251 734.95163,-556.08167 C 727.02546,-557.87843 718.79853,-558.94905 710.97742,-560.99945 C 698.91537,-564.58446 686.89434,-568.26851 675.93818,-574.52337 C 669.39311,-577.66105 663.35142,-582.01403 657.49648,-586.81783 C 655.91804,-583.3105 660.19297,-578.27327 663.02899,-575.13809 C 673.58523,-564.05966 686.42811,-558.50165 699.29767,-553.00805 C 709.65924,-549.34559 720.16153,-546.02282 731.87801,-545.63137 C 740.20711,-544.34784 748.79838,-543.69725 757.69639,-543.7872 L 758.82569,-543.22255 Z"
       fill-rule="evenodd"
       fill="#000000"
       stroke="#ffffff"
       id="path872"
       style="stroke-width:0.808387;stroke-miterlimit:4;stroke-dasharray:none" />
    <path
       d="M 951.33425,-547.47554 C 963.78621,-546.92557 975.26718,-548.71975 986.9882,-549.93443 C 996.00138,-551.5803 1005.1328,-552.94064 1014.036,-554.85222 C 1025.2295,-556.91617 1036.1454,-559.65012 1046.6164,-563.45835 C 1053.7484,-566.31779 1065.1908,-569.90106 1064.4433,-580.05588 C 1060.3588,-579.17554 1055.8953,-574.06439 1050.9194,-573.29392 C 1041.6471,-568.45076 1031.5913,-565.49899 1021.4127,-562.84362 C 1011.8205,-560.41201 1001.9513,-558.64889 991.90599,-557.31111 C 982.89601,-555.77749 973.88964,-554.23516 964.24344,-554.2375 C 958.31217,-552.92305 950.87943,-553.30398 945.80174,-556.08167 C 943.57857,-555.27499 944.15955,-546.93145 949.49008,-548.09026 C 950.19773,-548.279 950.73827,-547.75986 951.33425,-547.47554 Z"
       fill-rule="evenodd"
       fill="#000000"
       stroke="#ffffff"
       id="path874"
       style="stroke-width:0.808387;stroke-miterlimit:4;stroke-dasharray:none" />
    <path
       d="M 779.82643,-553.00805 C 794.39427,-552.67147 808.52134,-553.399 822.85707,-553.62277 C 828.99342,-554.75845 835.72957,-554.4461 841.91349,-555.46694 C 851.14823,-556.37306 860.09883,-557.96518 868.96132,-559.77001 C 879.15303,-562.35849 889.41326,-564.78157 899.69749,-567.14669 C 909.79581,-569.75574 920.09152,-571.88824 930.43366,-573.90864 C 939.81912,-575.64519 949.14194,-577.53294 958.71093,-578.82643 C 967.86002,-580.63897 977.10664,-582.216 986.37348,-583.74422 C 996.43678,-586.26807 1006.4688,-588.86748 1015.8802,-592.96507 C 1028.5176,-598.31617 1041.3922,-604.85425 1050.9194,-616.32455 C 1055.4807,-622.19191 1057.1142,-631.5893 1052.1489,-637.83987 C 1049.6124,-644.35852 1047.4304,-640.8562 1048.4605,-635.38098 C 1048.5659,-621.12425 1034.7069,-611.81849 1023.8716,-605.25953 C 1012.788,-599.10735 1001.1991,-594.17534 988.83238,-591.1209 C 979.56416,-588.19679 969.63779,-586.86161 959.94038,-584.97366 C 950.33057,-583.07913 940.72208,-581.18143 931.04838,-579.44115 C 921.45415,-577.3041 911.86207,-575.16188 902.15638,-573.29392 C 892.61786,-571.02238 883.13254,-568.62241 873.26438,-567.14669 C 864.04545,-565.62282 854.78683,-564.19478 844.98711,-564.07307 C 835.20267,-562.55042 824.66058,-562.8569 814.25094,-562.84362 C 807.44043,-561.268 800.10364,-563.71119 792.73562,-562.84362 C 784.33513,-562.7605 776.52098,-564.09294 768.14669,-564.07307 C 761.72508,-565.21967 755.03097,-565.70841 748.47554,-566.53196 C 739.21919,-568.29044 729.95624,-570.03296 720.81299,-572.06447 C 710.09175,-574.07416 699.548,-576.51232 689.4621,-580.05588 C 676.44482,-584.86789 663.68146,-590.29291 652.5787,-599.72702 C 646.95736,-604.60903 650.73446,-595.13414 652.5787,-592.96507 C 662.19156,-581.61396 674.91297,-574.85351 687.61793,-569.60558 C 696.86662,-565.6098 706.56267,-562.69402 716.50993,-560.38473 C 725.52422,-558.45171 734.56006,-556.57067 744.17248,-556.08167 C 751.05295,-554.76371 758.23854,-554.1823 765.6878,-554.2375 C 769.72327,-552.47437 775.59957,-554.75602 779.82643,-553.00805 Z"
       fill-rule="evenodd"
       fill="#000000"
       stroke="#ffffff"
       id="path876"
       style="stroke-width:0.808387;stroke-miterlimit:4;stroke-dasharray:none" />
    <path
       d="M 953.17842,-554.2375 C 964.72335,-553.89853 975.34322,-555.79285 986.37348,-556.69639 C 994.25279,-558.40139 1002.4389,-559.3657 1010.3477,-560.99945 C 1020.5003,-562.89806 1030.2858,-565.68263 1039.8544,-568.99086 C 1048.2612,-572.78577 1057.2304,-575.22292 1064.4433,-581.90005 C 1067.4334,-584.18871 1067.4426,-593.20016 1064.78,-591.45757 C 1054.5605,-582.59618 1042.6576,-577.7987 1030.6336,-573.29392 C 1021.2959,-570.12758 1011.9534,-566.97325 1001.7416,-565.91724 C 993.42759,-563.77751 984.47121,-563.18885 975.92318,-561.61418 C 968.04355,-560.72961 959.98867,-560.26812 951.94897,-559.77001 C 947.27027,-563.37243 943.55354,-555.83979 949.49008,-554.85222 C 950.74106,-554.73266 952.13842,-555.23415 953.17842,-554.2375 Z"
       fill-rule="evenodd"
       fill="#000000"
       stroke="#ffffff"
       id="path878"
       style="stroke-width:0.808387;stroke-miterlimit:4;stroke-dasharray:none" />
    <path
       d="M 951.94897,-560.38473 C 961.25904,-560.98896 970.65205,-561.39296 979.61152,-562.84362 C 989.77135,-564.19472 999.78881,-565.88969 1009.733,-567.76141 C 1020.7655,-570.3338 1031.3941,-573.88172 1041.6986,-578.21171 C 1050.2517,-582.50034 1059.8718,-586.15658 1066.2875,-594.19451 C 1068.2235,-596.96419 1065.9618,-607.40203 1063.2139,-601.57119 C 1051.868,-590.91512 1038.803,-584.40945 1025.1011,-579.44115 C 1015.4952,-575.72806 1005.5363,-572.86737 994.97961,-571.44975 C 985.73523,-569.5775 976.26172,-568.25845 966.70233,-567.14669 C 959.53147,-565.83018 951.69087,-566.13054 944.57229,-564.68779 C 943.43461,-559.59819 949.27596,-561.94853 951.94897,-560.38473 Z"
       fill-rule="evenodd"
       fill="#000000"
       stroke="#ffffff"
       id="path880"
       style="stroke-width:0.808387;stroke-miterlimit:4;stroke-dasharray:none" />
    <path
       d="M 806.87426,-562.84362 C 815.93344,-563.43883 825.17192,-563.60118 834.53681,-563.45835 C 840.05397,-564.39993 845.92629,-564.48406 851.74907,-564.68779 C 858.77013,-566.07615 866.31982,-566.18832 873.26438,-567.76141 C 883.58334,-569.13819 893.22374,-572.15313 903.38583,-573.90864 C 912.69792,-576.23214 922.21076,-578.07099 931.6631,-580.05588 C 941.2586,-581.98494 950.87063,-583.87412 960.5551,-585.58839 C 969.56532,-587.44637 978.71828,-588.95975 987.60293,-591.1209 C 998.82252,-594.55615 1009.9851,-598.12891 1020.1833,-604.03009 C 1030.7592,-609.349 1042.9461,-617.46226 1047.2311,-629.23375 C 1047.5882,-635.08569 1047.4433,-638.14504 1047.2311,-644.60183 C 1047.3292,-649.7779 1044.4764,-654.63639 1040.4691,-657.51102 C 1039.5414,-646.47623 1043.6158,-633.36943 1034.9366,-625.5454 C 1027.8918,-616.63944 1017.8783,-611.2166 1008.5035,-606.48898 C 997.90222,-601.47609 986.90275,-597.42472 975.30846,-594.80924 C 966.45511,-592.57252 957.34735,-590.95003 948.26063,-589.27673 C 939.29594,-587.30884 930.27879,-585.46759 921.21281,-583.74422 C 911.64438,-581.5449 901.9719,-579.59676 892.32081,-577.59698 C 883.40418,-576.33268 874.67909,-574.60596 865.27298,-574.52337 C 859.21493,-573.40359 852.77074,-573.21596 846.21656,-573.29392 C 833.20027,-571.86348 819.08506,-573.08609 805.64481,-572.6792 C 799.29335,-573.58535 792.60177,-573.67035 785.97367,-573.90864 C 779.35884,-575.08348 772.37861,-575.37616 765.6878,-576.36754 C 756.5477,-577.70706 747.81329,-580.026 738.63997,-581.28532 C 730.31228,-583.80171 721.38351,-584.86692 712.82159,-586.81783 C 701.74217,-589.15708 690.6865,-591.55364 680.24125,-595.42396 C 668.09674,-599.95446 656.2214,-605.1348 645.81674,-613.86566 C 640.10346,-619.74215 641.62579,-613.56675 643.97257,-609.5626 C 652.49195,-597.27954 666.03157,-590.75347 678.39708,-584.97366 C 689.01263,-580.40513 700.11012,-577.00006 711.59214,-574.52337 C 721.90201,-572.62996 731.93748,-570.07409 742.32831,-568.37613 C 751.93701,-566.59896 761.79542,-565.42465 771.83503,-564.68779 C 782.83054,-563.61549 794.11907,-563.25058 805.64481,-563.45835 L 806.77411,-562.8937 Z"
       fill-rule="evenodd"
       fill="#000000"
       stroke="#ffffff"
       id="path882"
       style="stroke-width:0.808387;stroke-miterlimit:4;stroke-dasharray:none" />
    <path
       d="M 939.03978,-565.91724 C 951.27873,-565.38682 962.37036,-567.62627 974.07901,-568.37613 C 982.30976,-570.22203 990.99874,-570.96166 999.28267,-572.6792 C 1011.0692,-574.91561 1022.2792,-578.54371 1033.0925,-583.12949 C 1044.2446,-588.23901 1055.8923,-594.04706 1064.4433,-604.03009 C 1066.4057,-607.782 1065.3606,-613.04334 1061.3697,-615.09511 C 1055.9729,-604.54362 1044.6519,-597.72792 1034.9366,-592.35034 C 1025.3166,-587.44207 1015.3645,-583.33532 1004.8152,-580.6706 C 995.21561,-577.55704 984.78287,-576.45504 974.69374,-574.52337 C 965.40621,-573.45492 956.48257,-571.50792 947.03119,-570.83503 C 943.89025,-568.93308 937.54479,-571.57915 936.58089,-567.14669 C 937.07464,-565.83739 938.34138,-567.18786 939.03978,-565.91724 Z"
       fill-rule="evenodd"
       fill="#000000"
       stroke="#ffffff"
       id="path884"
       style="stroke-width:0.808387;stroke-miterlimit:4;stroke-dasharray:none" />
    <path
       d="M 805.03009,-573.29392 C 824.03708,-573.32838 843.24643,-572.87433 861.58464,-574.52337 C 869.90039,-575.05464 877.9001,-576.34892 886.17357,-576.98226 C 894.13221,-578.70064 902.19138,-580.17627 910.14778,-581.90005 C 920.17677,-583.97689 930.10593,-586.29472 940.26923,-588.04728 C 950.21445,-590.32634 960.3667,-592.10557 970.39067,-594.19451 C 981.64227,-596.73278 992.58028,-600.02824 1002.971,-604.64481 C 1013.9947,-609.32289 1024.521,-615.20182 1033.7072,-624.31596 C 1038.8411,-629.80013 1040.7843,-636.60596 1039.8544,-644.60183 C 1039.4363,-653.71376 1041.8898,-664.01519 1034.9366,-670.42021 C 1032.2525,-675.18447 1032.3882,-665.69944 1032.4777,-663.04353 C 1032.2252,-655.68227 1032.6969,-648.62099 1033.0925,-641.52821 C 1030.106,-629.32237 1017.5219,-620.90622 1007.2741,-615.09511 C 997.15887,-609.48855 986.46017,-605.29033 975.30846,-602.18592 C 965.58302,-599.17134 955.40133,-597.25828 945.18702,-595.42396 C 935.23806,-593.15392 925.2211,-591.04807 915.06557,-589.27673 C 905.74695,-587.08905 896.13562,-585.60798 886.17357,-584.97366 C 878.39243,-583.85131 870.33429,-583.39771 862.19936,-583.12949 C 848.97438,-582.45082 834.81547,-582.00045 821.62762,-583.12949 C 811.05061,-582.94361 801.23241,-584.58966 790.89145,-584.97366 C 783.42319,-586.4767 775.60413,-587.13284 768.14669,-588.662 C 758.6203,-590.96282 748.88159,-592.75107 739.25469,-594.80924 C 729.03987,-596.93212 718.87574,-599.17738 708.51852,-600.95647 C 698.42421,-603.28541 687.97821,-604.76528 678.39708,-608.33315 C 666.52065,-611.9916 655.20386,-617.0012 644.58729,-623.70123 C 640.83614,-625.47457 636.36971,-631.25762 633.52227,-631.69264 C 636.19747,-619.31676 649.25366,-611.15771 659.34065,-605.25953 C 669.7128,-599.77842 680.55851,-595.44062 691.92099,-592.35034 C 701.733,-589.54477 711.95608,-587.73163 722.04244,-585.58839 C 732.35231,-583.69498 742.38778,-581.13911 752.7786,-579.44115 C 762.07716,-577.20502 771.89982,-576.23418 781.6706,-575.13809 C 789.37925,-574.27491 797.22987,-574.35526 805.03009,-573.29392 Z"
       fill-rule="evenodd"
       fill="#000000"
       stroke="#ffffff"
       id="path886"
       style="stroke-width:0.808387;stroke-miterlimit:4;stroke-dasharray:none" />
    <path
       d="M 826.54541,-583.12949 C 840.92455,-582.75377 854.79338,-583.61007 868.96132,-583.74422 C 875.29721,-584.89288 882.1739,-584.73591 888.63247,-585.58839 C 898.00744,-586.65067 907.20155,-588.14959 916.29502,-589.89145 C 925.25972,-591.85933 934.27686,-593.70059 943.34285,-595.42396 C 953.34905,-597.76069 963.67749,-599.3195 973.46429,-602.18592 C 985.87187,-605.84122 998.05049,-610.04943 1009.1182,-616.93928 C 1019.87,-623.12804 1033.8098,-632.5888 1032.4777,-647.06072 C 1031.1047,-655.63032 1031.9653,-665.47487 1032.4777,-674.10855 C 1031.7422,-679.22441 1029.3017,-684.55436 1025.1011,-687.63246 C 1023.6344,-678.2347 1023.8085,-668.1572 1023.8716,-658.12574 C 1025.9034,-650.59421 1025.9717,-641.46652 1019.5685,-635.9957 C 1011.8702,-626.27552 1000.7712,-621.0909 990.67655,-615.70983 C 981.05747,-611.9086 971.55434,-607.82752 961.16982,-605.87426 C 952.29628,-602.98671 942.60993,-602.06144 933.50727,-599.72702 C 924.0246,-597.93536 914.66865,-595.83781 904.61527,-595.42396 C 897.11339,-594.12212 889.31549,-593.53493 881.25579,-593.57979 C 868.2395,-592.14935 854.1243,-593.37196 840.68405,-592.96507 C 829.94975,-592.89416 819.78947,-594.20906 809.33315,-594.80924 C 800.25162,-596.08526 791.12796,-597.25953 782.28533,-599.1123 C 772.29677,-601.49163 762.19573,-603.59946 752.16388,-605.87426 C 741.90925,-607.90103 731.80754,-610.29698 721.42771,-612.02149 C 711.88122,-614.06886 702.21239,-615.82091 692.53572,-617.554 C 681.9465,-619.59261 671.65486,-622.34971 661.79955,-626.16013 C 649.33628,-631.03049 637.32862,-637.00079 626.76032,-646.446 C 625.77193,-642.5746 629.97083,-636.9746 633.52227,-633.53681 C 643.59169,-623.17696 655.64512,-617.60695 667.94678,-612.63621 C 678.43039,-608.65363 689.12639,-605.18379 700.52712,-603.41536 C 710.47235,-601.13631 720.62459,-599.35708 730.64856,-597.26813 C 739.63067,-595.34228 748.61772,-593.42834 757.69639,-591.73562 C 767.67747,-589.25333 777.90352,-587.36249 788.43256,-586.20311 C 797.65299,-584.88777 807.22335,-584.41726 816.70983,-583.74422 C 819.92776,-583.43711 823.57931,-584.42067 826.54541,-583.12949 Z"
       fill-rule="evenodd"
       fill="#000000"
       stroke="#ffffff"
       id="path888"
       style="stroke-width:0.808387;stroke-miterlimit:4;stroke-dasharray:none" />
    <path
       d="M 832.07792,-593.57979 C 851.61016,-593.62536 871.30015,-593.29008 890.47664,-594.19451 C 897.24257,-595.49923 904.63077,-595.30168 911.37723,-596.65341 C 921.95214,-597.70204 931.94796,-600.14873 942.1134,-602.18592 C 952.54118,-604.2045 962.91084,-606.36337 972.84957,-609.5626 C 986.96047,-614.41271 1000.716,-620.12074 1012.8066,-629.84847 C 1020.6843,-635.58767 1026.7204,-644.47641 1023.8716,-654.4374 C 1022.6682,-665.44248 1023.0981,-677.51683 1024.4863,-688.24719 C 1024.9466,-694.26822 1021.0011,-699.38519 1017.1096,-703.00055 C 1016.2015,-693.03187 1012.3564,-684.27976 1013.4213,-673.49383 C 1015.1103,-666.63246 1016.2861,-659.55842 1017.7244,-652.59323 C 1015.5361,-640.36007 1002.9819,-632.20067 993.13544,-626.16013 C 982.9053,-620.83086 972.38907,-616.19226 961.16982,-613.25094 C 951.60902,-609.83891 941.25915,-608.33185 931.04838,-606.48898 C 921.87754,-605.54861 912.96983,-603.973 903.38583,-604.03009 C 897.70628,-602.98586 891.4472,-603.34077 885.55885,-602.80064 C 868.77035,-602.74941 851.92602,-602.56341 835.76626,-604.03009 C 827.37341,-604.37525 819.48261,-605.93244 811.17732,-606.48898 C 802.98939,-608.35338 794.65749,-609.87021 786.58839,-612.02149 C 776.70745,-614.16596 767.09341,-616.95477 757.08167,-618.78345 C 748.47599,-621.1234 739.65147,-622.935 730.64856,-624.31596 C 721.5732,-626.30645 712.26443,-627.73345 702.98601,-629.23375 C 693.17803,-631.14454 683.20883,-632.66609 673.47929,-634.76626 C 660.39388,-638.26923 647.7306,-642.79131 635.98117,-649.51962 C 629.73409,-652.18244 624.47037,-657.21931 618.76891,-661.19936 C 620.6825,-648.97776 633.3443,-641.73085 642.74312,-635.38098 C 653.84917,-629.98268 665.01876,-624.73775 677.16763,-621.85706 C 686.43461,-618.92993 696.39419,-617.67497 706.05963,-615.70983 C 715.70062,-613.89058 725.27042,-611.89948 734.95163,-610.17732 C 744.57093,-608.10081 754.15819,-605.94694 763.84363,-604.03009 C 773.34705,-601.67382 782.96346,-599.59032 792.73562,-597.88285 C 801.95456,-596.359 811.21317,-594.93095 821.0129,-594.80924 C 824.07588,-593.07782 828.81721,-595.29077 832.07792,-593.57979 Z"
       fill-rule="evenodd"
       fill="#000000"
       stroke="#ffffff"
       id="path890"
       style="stroke-width:0.808387;stroke-miterlimit:4;stroke-dasharray:none" />
    <path
       d="M 851.74907,-603.41536 C 870.34464,-603.45371 889.14431,-602.99929 907.07417,-604.64481 C 916.68007,-605.23445 925.99597,-606.52421 935.35144,-607.71843 C 945.57528,-609.73467 955.83526,-611.66365 965.47289,-615.09511 C 977.57803,-618.90102 989.14428,-624.00794 999.8974,-631.07792 C 1008.7844,-637.06909 1019.8871,-646.80264 1015.8802,-658.12574 C 1014.5016,-666.98397 1011.2123,-676.27651 1013.4213,-685.78829 C 1014.2019,-693.64016 1018.2843,-701.49091 1015.8802,-709.14778 C 1014.6213,-711.54035 1009.7428,-721.1339 1009.1182,-714.06557 C 1007.1466,-705.53279 1002.3053,-698.18875 999.28267,-690.09136 C 999.10359,-681.74202 1005.7407,-676.21603 1007.2741,-668.57604 C 1010.5294,-661.94631 1011.2388,-652.41145 1004.8152,-647.06072 C 996.75718,-637.01401 985.42654,-631.19482 974.69374,-626.16013 C 964.49969,-621.76831 954.15872,-617.73109 942.72812,-616.32455 C 933.76591,-614.88051 924.6226,-613.87368 915.06557,-613.86566 C 909.06622,-612.60413 902.12976,-613.60498 896.00915,-612.63621 C 883.44373,-612.18698 871.53672,-613.32728 859.12575,-613.25094 C 852.98938,-614.3866 846.25323,-614.07426 840.06932,-615.09511 C 829.8907,-615.90619 820.16788,-617.81766 810.5626,-620.01289 C 800.49897,-622.6208 790.34647,-625.01417 780.44116,-628.0043 C 772.41942,-629.86011 763.79892,-630.2704 755.85222,-632.30736 C 747.74123,-633.77795 740.36714,-637.02757 732.49273,-639.06932 C 723.24868,-640.24275 714.16036,-641.79215 704.83018,-642.75766 C 696.06068,-644.29229 687.19734,-645.60035 678.39708,-647.06072 C 667.28363,-648.82314 656.75361,-651.9941 646.43146,-655.66685 C 634.23457,-660.6856 622.23509,-666.18097 612.00696,-675.95272 C 610.57055,-669.51399 617.41245,-664.21405 621.84253,-659.35519 C 632.2322,-651.08281 643.81126,-645.68188 655.65231,-640.91349 C 665.76968,-637.44595 676.01163,-634.27912 687.00321,-632.92209 C 696.07856,-630.93159 705.38734,-629.50459 714.66576,-628.0043 C 724.47374,-626.0935 734.44293,-624.57194 744.17248,-622.47179 C 754.04611,-620.30968 763.90238,-618.10564 773.6792,-615.70983 C 783.52677,-613.48479 793.14298,-610.70121 803.18592,-608.94787 C 812.07564,-606.91901 821.33047,-605.77159 830.84847,-605.25953 C 837.4442,-603.76398 844.89521,-604.70457 851.74907,-603.41536 Z M 611.39223,-676.56744 C 610.25796,-677.41193 610.75265,-674.52867 611.39223,-676.56744 Z"
       fill-rule="evenodd"
       fill="#000000"
       stroke="#ffffff"
       id="path892"
       style="stroke-width:0.808387;stroke-miterlimit:4;stroke-dasharray:none" />
    <path
       d="M 873.26438,-613.25094 C 887.24114,-612.85727 900.67427,-613.77605 914.45085,-613.86566 C 920.58722,-615.00131 927.32334,-614.689 933.50727,-615.70983 C 945.08133,-616.44508 955.74903,-619.36849 966.08761,-623.08651 C 979.69872,-628.68374 993.0623,-634.87855 1004.2005,-646.446 C 1008.5519,-651.29112 1010.7703,-658.58443 1007.8888,-664.8877 C 1006.2464,-673.06212 1000.7509,-679.6405 998.66795,-687.63246 C 998.56112,-695.25228 1004.7474,-700.26537 1006.0446,-707.30361 C 1009.4707,-713.83866 1011.1544,-723.70716 1004.8152,-729.43365 C 1001.6611,-735.61327 1001.4353,-725.62213 999.8974,-723.28642 C 997.10857,-715.88676 988.81101,-707.01305 980.22625,-711.60668 C 973.66271,-713.26542 968.18102,-717.536 961.78455,-719.59808 C 963.23549,-714.12818 968.36801,-710.18327 971.62012,-705.45944 C 978.38512,-701.10568 987.51236,-694.93602 988.83238,-686.40302 C 997.94943,-681.41897 1002.7692,-671.18807 1002.3563,-660.58464 C 997.61671,-648.40635 984.64642,-640.71475 974.07901,-634.76626 C 964.321,-629.81641 954.01813,-626.18197 942.72812,-624.93068 C 922.42594,-621.88186 900.19539,-623.48857 878.79689,-623.08651 C 871.62038,-624.18448 863.90863,-623.99028 856.66685,-624.93068 C 846.39571,-626.01306 836.28623,-627.48576 826.54541,-629.84847 C 816.91662,-631.8172 807.85699,-635.16 798.26813,-637.22515 C 788.55188,-636.93365 779.52155,-638.29811 769.99086,-638.4546 C 763.42706,-639.66774 756.63774,-640.33646 750.31971,-642.14294 C 739.46933,-645.19037 729.5478,-650.48018 719.58354,-655.66685 C 710.60922,-656.09228 701.98932,-657.37334 693.15044,-658.12574 C 684.38095,-659.66038 675.51758,-660.96842 666.71733,-662.42881 C 656.52081,-664.4261 646.75305,-667.45854 637.21061,-671.03493 C 625.73039,-675.88999 614.56478,-681.5046 604.63028,-690.09136 C 604.55582,-680.25439 615.01379,-674.08009 621.84253,-668.57604 C 632.65194,-661.84685 644.05616,-656.55367 656.26704,-653.20796 C 664.76583,-649.91038 674.00005,-648.38824 683.31487,-647.06072 C 691.36383,-645.47554 699.46093,-644.00659 707.9038,-643.37238 C 715.0776,-641.85804 722.47899,-640.89318 730.03384,-640.29877 C 737.69277,-638.55645 745.91134,-638.16519 753.39333,-635.9957 C 764.28113,-633.68853 774.56446,-629.92205 785.35894,-627.38958 C 795.16452,-624.15869 805.50341,-622.21529 815.48039,-619.39817 C 824.40476,-617.94765 833.03224,-615.78038 842.52822,-615.70983 C 849.38744,-614.34056 856.85876,-614.449 864.04353,-613.86566 C 867.07648,-613.56676 870.47288,-614.53054 873.26438,-613.25094 Z"
       fill-rule="evenodd"
       fill="#000000"
       stroke="#ffffff"
       id="path894"
       style="stroke-width:0.808387;stroke-miterlimit:4;stroke-dasharray:none" />
    <path
       d="M 878.18217,-623.70123 C 898.963,-623.90549 920.21217,-622.97907 940.26923,-624.93068 C 950.06257,-626.70707 959.91666,-628.33676 968.5465,-632.92209 C 980.2596,-638.32052 993.24691,-645.47139 1000.5121,-657.51102 C 1004.1152,-666.49329 999.06306,-675.79267 993.75016,-682.71468 C 988.398,-685.24376 995.27746,-677.23939 994.36489,-674.10855 C 998.09087,-662.30935 986.55697,-653.73652 978.38208,-647.06072 C 969.0726,-640.908 959.00066,-636.596 947.64591,-635.38098 C 932.42831,-631.7246 915.06813,-633.24084 898.46804,-632.92209 C 892.78849,-633.96629 886.52941,-633.61141 880.64106,-634.15153 C 871.55563,-635.0083 862.5629,-636.08889 853.59324,-637.22515 C 843.88741,-639.2977 834.19183,-641.39494 824.70124,-643.98711 C 819.02919,-645.53993 814.31635,-648.1605 808.10371,-647.06072 C 800.04914,-647.09318 792.0252,-647.0517 784.74422,-645.21655 C 787.16476,-640.61523 794.44496,-640.44667 798.88286,-637.83987 C 809.17279,-635.2836 819.0675,-631.77322 829.61902,-629.84847 C 838.93765,-627.6608 848.54897,-626.17971 858.51102,-625.5454 C 864.77454,-624.27555 871.75075,-624.95943 878.18217,-623.70123 Z M 989.4471,-685.17357 C 989.96819,-684.5788 993.33967,-684.00493 989.4471,-685.17357 Z"
       fill-rule="evenodd"
       fill="#000000"
       stroke="#ffffff"
       id="path896"
       style="stroke-width:0.808387;stroke-miterlimit:4;stroke-dasharray:none" />
    <path
       d="M 771.83503,-629.84847 C 768.95692,-631.15256 767.96611,-631.33378 765.6878,-631.07792 C 760.36151,-632.07745 754.04387,-632.81039 749.70499,-634.76626 C 749.79933,-635.84485 757.41338,-635.25902 760.15529,-633.53681 C 764.08543,-633.13774 767.8178,-631.35745 771.83503,-629.84847 Z M 772.44975,-630.46319 C 772.75766,-629.0635 775.75626,-630.16464 772.44975,-630.46319 Z"
       fill-rule="evenodd"
       fill="#000000"
       stroke="#ffffff"
       id="path898"
       style="stroke-width:0.808387;stroke-miterlimit:4;stroke-dasharray:none" />
    <path
       d="M 898.46804,-633.53681 C 915.78207,-633.61603 933.48822,-632.74862 949.49008,-635.9957 C 961.93866,-638.47779 973.58462,-642.89758 983.29986,-651.97851 C 990.78953,-657.25525 996.72826,-665.95447 993.75016,-675.338 C 992.25951,-680.31472 989.95532,-685.86003 985.14403,-688.86191 C 988.05991,-681.17452 989.82134,-669.94462 982.68514,-663.65825 C 974.68878,-652.48942 962.29945,-648.30808 950.1048,-645.83128 C 936.15902,-642.56728 920.49309,-643.45612 905.23,-643.37238 C 899.09365,-644.50806 892.35749,-644.19571 886.17357,-645.21655 C 876.29144,-646.04382 866.79061,-647.79162 857.28158,-649.51962 C 847.00327,-652.10395 836.57876,-654.3353 826.54541,-657.51102 C 821.41822,-659.75271 815.23947,-657.11165 809.33315,-657.51102 C 806.14167,-656.79266 797.05888,-655.45223 803.80064,-651.97851 C 814.07345,-647.07718 825.37198,-644.65219 836.38098,-641.52821 C 844.57665,-640.09229 852.30501,-637.52823 860.96992,-637.22515 C 868.29522,-635.78679 875.92495,-635.08338 883.71468,-634.76626 C 888.39351,-633.57715 893.70278,-634.89915 898.46804,-633.53681 Z"
       fill-rule="evenodd"
       fill="#000000"
       stroke="#ffffff"
       id="path900"
       style="stroke-width:0.808387;stroke-miterlimit:4;stroke-dasharray:none" />
    <path
       d="M 747.86082,-634.76626 C 754.0159,-636.54245 749.91121,-636.09308 744.7872,-637.22515 C 740.01186,-636.9284 742.25697,-637.424 738.02524,-638.4546 C 729.79767,-640.55954 745.38125,-635.66014 747.86082,-634.76626 Z M 743.55775,-635.9957 C 745.41541,-635.65942 749.6117,-634.5998 743.55775,-635.9957 Z"
       fill-rule="evenodd"
       fill="#000000"
       stroke="#ffffff"
       id="path902"
       style="stroke-width:0.808387;stroke-miterlimit:4;stroke-dasharray:none" />
    <path
       d="M 787.81784,-637.83987 C 792.14252,-637.45076 795.7768,-638.57056 797.65341,-637.83987 C 795.40044,-638.75449 789.6164,-640.89295 785.97367,-642.14294 C 781.25422,-641.33918 776.31371,-641.06907 771.83503,-639.68404 C 775.82428,-637.6991 782.85345,-639.26387 787.81784,-637.83987 Z M 771.22031,-639.06932 C 771.55777,-639.8593 768.06249,-639.4703 771.22031,-639.06932 Z"
       fill-rule="evenodd"
       fill="#000000"
       stroke="#ffffff"
       id="path904"
       style="stroke-width:0.808387;stroke-miterlimit:4;stroke-dasharray:none" />
    <path
       d="M 764.45835,-639.68404 C 771.5282,-639.96527 777.97217,-641.75748 784.74422,-642.75766 C 784.06817,-643.0035 784.93278,-647.87607 790.89145,-647.06072 C 797.35769,-647.48486 803.8223,-647.91295 810.5626,-647.67545 C 814.80516,-647.81189 806.68426,-649.40154 803.80064,-651.36379 C 800.11359,-655.23433 800.06843,-655.85271 793.96507,-655.05213 C 785.82459,-653.6879 777.50166,-652.76415 769.37614,-651.36379 C 761.36969,-649.35104 752.97344,-648.27932 745.40192,-645.21655 C 741.14411,-644.95729 749.07268,-643.57699 752.16388,-642.14294 C 756.27479,-641.33906 760.29337,-640.77859 764.45835,-639.68404 Z"
       fill-rule="evenodd"
       fill="#000000"
       stroke="#ffffff"
       id="path906"
       style="stroke-width:0.808387;stroke-miterlimit:4;stroke-dasharray:none" />
    <path
       d="M 905.23,-643.98711 C 921.40963,-644.04179 937.97811,-643.15768 952.5637,-647.06072 C 964.53489,-649.3952 976.0553,-654.64188 983.91459,-665.50242 C 988.73224,-672.41653 987.73353,-683.33979 983.29986,-690.09136 C 980.95997,-695.38487 976.76974,-697.07444 979.61152,-690.09136 C 981.9667,-680.60106 979.20264,-670.26035 971.0054,-664.8877 C 962.10343,-659.56016 952.21133,-656.62301 941.49868,-655.66685 C 934.71634,-654.11193 927.17713,-654.3843 919.98336,-653.82268 C 911.75611,-654.36271 903.62888,-655.14423 895.39442,-655.66685 C 888.28831,-657.05482 880.93135,-657.83716 873.87911,-659.35519 C 864.02228,-661.55787 854.06389,-663.51531 844.37239,-666.11715 C 838.0975,-667.15023 832.50399,-671.32336 825.93068,-669.80549 C 821.18837,-668.92169 815.11034,-668.99249 811.79205,-666.11715 C 813.99683,-660.74563 821.44729,-660.86032 825.93068,-658.12574 C 835.73203,-655.5842 845.39289,-652.70349 855.43741,-650.74906 C 864.41943,-648.73812 873.4483,-646.84028 883.09996,-646.446 C 890.06356,-644.69097 897.94168,-645.38506 905.23,-643.98711 Z"
       fill-rule="evenodd"
       fill="#000000"
       stroke="#ffffff"
       id="path908"
       style="stroke-width:0.808387;stroke-miterlimit:4;stroke-dasharray:none" />
    <path
       d="M 742.32831,-645.21655 C 752.51734,-648.3062 762.93083,-650.85395 773.6792,-652.59323 C 783.09513,-654.34109 792.79759,-655.39722 802.5712,-656.28157 C 808.24877,-658.23506 814.57736,-658.61687 821.0129,-658.74047 C 822.0927,-660.19972 813.90725,-661.11014 811.79205,-664.27298 C 812.00547,-669.13382 805.80298,-667.21361 802.5712,-666.73187 C 794.09737,-666.58223 786.25781,-664.90132 777.98226,-664.27298 C 770.65977,-662.7078 763.17935,-661.52389 755.85222,-659.96991 C 746.8092,-657.43306 736.78425,-655.02506 728.80439,-651.36379 C 733.45924,-649.06461 737.65254,-647.44929 742.32831,-645.21655 Z M 811.79205,-667.34659 C 812.31043,-667.41156 814.19803,-668.91929 811.79205,-667.34659 Z"
       fill-rule="evenodd"
       fill="#000000"
       stroke="#ffffff"
       id="path910"
       style="stroke-width:0.808387;stroke-miterlimit:4;stroke-dasharray:none" />
    <path
       d="M 727.57495,-651.97851 C 736.5505,-654.73982 745.19809,-658.2929 754.62277,-659.96991 C 762.97036,-662.23337 771.53671,-663.96866 780.44116,-664.8877 C 789.19395,-666.54753 798.42129,-667.06173 807.48898,-667.96132 C 814.84534,-667.84063 821.03322,-670.5409 828.38958,-670.42021 C 827.98228,-672.60529 820.87166,-673.14398 818.554,-676.56744 C 819.48393,-681.26258 812.90961,-677.18336 809.33315,-678.41161 C 800.70065,-677.65564 792.07714,-676.87797 783.51477,-675.95272 C 774.20954,-674.51717 764.96064,-672.94564 755.85222,-671.03493 C 746.28476,-668.50831 736.69374,-666.03858 727.57495,-662.42881 C 729.73269,-659.97066 730.66052,-654.52382 723.88661,-655.66685 C 717.89857,-655.95141 724.69559,-654.47042 727.57495,-651.97851 Z"
       fill-rule="evenodd"
       fill="#000000"
       stroke="#ffffff"
       id="path912"
       style="stroke-width:0.808387;stroke-miterlimit:4;stroke-dasharray:none" />
    <path
       d="M 916.90974,-654.4374 C 926.38572,-654.43618 935.47543,-655.3675 944.57229,-656.28157 C 955.25002,-658.84127 966.20002,-660.74368 974.69374,-668.57604 C 979.97111,-674.48367 980.54583,-683.38998 978.9968,-691.3208 C 977.73889,-695.83154 975.85998,-700.08506 972.23484,-703.61527 C 971.81463,-698.82001 973.54012,-692.77041 972.84957,-687.01774 C 973.16557,-676.26364 961.09984,-672.43006 953.17842,-669.80549 C 941.33769,-666.49126 928.46099,-665.67803 915.06557,-666.11715 C 904.01027,-666.09089 894.06654,-668.74822 883.71468,-670.42021 C 875.46175,-672.62238 866.80898,-673.85926 858.51102,-675.95272 C 850.40485,-677.92963 842.46304,-680.30336 834.53681,-682.71468 C 829.35175,-680.73128 822.80045,-682.04628 818.554,-677.79689 C 823.17879,-672.18902 831.14719,-671.16967 837.61043,-668.57604 C 848.00022,-665.97109 858.23578,-662.99376 868.96132,-661.19936 C 878.75482,-658.96383 888.6498,-656.9733 899.08276,-656.28157 C 904.72634,-654.92149 911.03852,-655.63452 916.90974,-654.4374 Z M 971.0054,-703.61527 V -704.23 Z"
       fill-rule="evenodd"
       fill="#000000"
       stroke="#ffffff"
       id="path914"
       style="stroke-width:0.808387;stroke-miterlimit:4;stroke-dasharray:none" />
    <path
       d="M 715.8952,-656.28157 C 720.33834,-656.79669 726.69081,-654.90783 729.41912,-658.12574 C 725.27459,-662.94519 719.49582,-667.31703 714.05103,-670.42021 C 703.68414,-670.45181 693.90953,-671.91331 683.92959,-672.8791 C 674.54983,-674.62942 664.94875,-675.84543 655.65231,-677.79689 C 644.21005,-680.57447 633.11295,-684.18539 622.45725,-688.86191 C 615.34894,-692.8235 607.83982,-695.81743 601.55666,-701.7711 C 597.37654,-694.15252 608.37066,-688.52232 613.2364,-683.94412 C 622.67009,-678.26102 632.32641,-673.11536 642.74312,-669.80549 C 651.9194,-666.2496 661.53665,-663.75835 671.63512,-662.42881 C 680.85548,-660.49856 690.35142,-659.23363 699.9124,-658.12574 C 705.09445,-657.12811 710.61313,-657.43287 715.8952,-656.28157 Z"
       fill-rule="evenodd"
       fill="#000000"
       stroke="#ffffff"
       id="path916"
       style="stroke-width:0.808387;stroke-miterlimit:4;stroke-dasharray:none" />
    <path
       d="M 725.73078,-662.42881 C 735.92674,-666.11645 746.2014,-669.61407 757.08167,-671.64966 C 766.21278,-674.00029 775.68476,-675.52792 785.35894,-676.56744 C 794.78438,-677.88253 804.34995,-678.85934 814.25094,-679.02634 C 820.66121,-679.62076 826.20573,-682.3053 832.69264,-682.71468 C 835.92869,-683.44521 826.75718,-685.12663 824.70124,-687.63246 C 819.42753,-692.03436 812.04622,-687.67587 805.64481,-688.86191 C 797.92389,-687.88396 789.93828,-687.54506 782.28533,-686.40302 C 772.03484,-685.06586 762.04541,-683.09841 752.16388,-680.87051 C 741.40006,-678.14399 730.82194,-674.96914 720.81299,-670.42021 C 713.22706,-669.58158 723.34553,-665.68093 725.73078,-662.42881 Z"
       fill-rule="evenodd"
       fill="#000000"
       stroke="#ffffff"
       id="path918"
       style="stroke-width:0.808387;stroke-miterlimit:4;stroke-dasharray:none" />
    <path
       d="M 908.91834,-666.73187 C 921.48485,-666.68983 934.19899,-666.29135 945.80174,-668.57604 C 954.76916,-671.08671 964.96375,-672.72786 971.0054,-680.87051 C 973.50125,-689.16259 972.54555,-699.82472 969.16123,-707.30361 C 966.68731,-712.21992 962.90455,-714.59762 964.85816,-707.30361 C 966.76017,-699.35137 965.65274,-688.4439 956.86676,-685.78829 C 948.51019,-680.95307 938.58598,-679.90246 928.58949,-679.02634 C 916.81815,-678.63546 905.45834,-679.23811 894.7797,-681.48523 C 885.00695,-683.68596 875.05788,-685.46104 865.27298,-687.63246 C 856.18783,-689.92428 847.17572,-692.39243 838.22515,-695.00914 C 832.97782,-694.62821 826.88663,-694.06764 823.47179,-690.70608 C 825.49145,-685.37082 832.44151,-684.79499 836.99571,-682.71468 C 847.52716,-679.05252 858.54882,-676.57381 869.57604,-674.10855 C 879.28328,-672.44924 888.54054,-669.70362 898.46804,-668.57604 C 901.60637,-667.17198 905.52912,-667.95726 908.91834,-666.73187 Z M 963.62872,-713.45085 H 964.24344 Z"
       fill-rule="evenodd"
       fill="#000000"
       stroke="#ffffff"
       id="path920"
       style="stroke-width:0.808387;stroke-miterlimit:4;stroke-dasharray:none" />
    <path
       d="M 717.12465,-669.19076 C 716.25491,-672.39886 721.55121,-670.25899 723.27188,-672.26438 C 733.58012,-676.38055 744.20763,-679.72593 755.2375,-682.09995 C 764.69122,-684.16639 774.12069,-686.29138 784.1295,-687.01774 C 792.67068,-688.48885 801.51602,-689.22566 810.5626,-689.47663 C 814.35655,-690.32626 819.8042,-689.50641 822.85707,-690.70608 C 825.32801,-695.06074 832.49201,-693.80231 835.76626,-696.23859 C 839.86873,-694.79742 830.17303,-698.07708 827.77485,-699.92693 C 817.07528,-700.11892 806.99945,-698.80505 796.42396,-698.69748 C 789.01313,-697.2607 781.04269,-697.17495 773.6792,-695.62387 C 763.55752,-694.2655 753.79413,-692.04219 744.17248,-689.47663 C 735.32573,-686.77902 726.46123,-684.12428 718.3541,-679.64106 C 723.75034,-675.4566 722.69365,-672.95086 717.12465,-669.19076 Z"
       fill-rule="evenodd"
       fill="#000000"
       stroke="#ffffff"
       id="path922"
       style="stroke-width:0.808387;stroke-miterlimit:4;stroke-dasharray:none" />
    <path
       d="M 706.67435,-671.03493 C 711.68505,-671.38559 718.34205,-669.93483 721.42771,-673.49383 C 720.69393,-677.94973 716.22589,-682.65861 712.20686,-684.55885 C 699.07781,-684.06322 686.91928,-685.91061 674.70874,-687.63246 C 665.66076,-689.19438 656.60069,-690.7271 647.66091,-692.55025 C 635.59939,-695.7267 623.74801,-699.41056 612.62168,-704.84472 C 608.12869,-706.47454 603.41469,-709.88446 600.32721,-713.45085 C 595.85124,-706.28393 603.11696,-699.7261 608.93334,-696.85331 C 620.67883,-689.70568 633.24428,-684.53761 646.43146,-680.87051 C 656.30926,-677.93399 666.75132,-676.3597 677.16763,-674.72327 C 686.43448,-673.31509 695.6404,-671.75982 705.44491,-671.64966 L 706.57421,-671.085 Z"
       fill-rule="evenodd"
       fill="#000000"
       stroke="#ffffff"
       id="path924"
       style="stroke-width:0.808387;stroke-miterlimit:4;stroke-dasharray:none" />
    <path
       d="M 910.14778,-679.64106 C 924.51934,-679.52371 939.03221,-679.06521 951.33425,-683.94412 C 959.08536,-685.72632 966.4651,-691.96558 964.85816,-701.15638 C 964.90312,-709.57019 963.08091,-717.21059 957.48148,-723.28642 C 956.47884,-717.41825 959.71117,-708.45188 954.40787,-703.61527 C 946.45217,-696.29299 936.36959,-694.10553 925.51587,-693.7797 C 918.01675,-692.033 909.83846,-693.92828 902.15638,-693.7797 C 895.02536,-695.10755 887.7288,-696.03571 880.64106,-697.46804 C 870.60784,-699.94445 860.34386,-701.86377 850.51962,-704.84472 C 844.73059,-706.62618 838.93704,-710.0027 832.69264,-707.30361 C 829.22866,-707.18001 821.52573,-703.65097 827.77485,-700.54165 C 837.8383,-694.92998 849.24321,-692.5569 860.35519,-689.47663 C 869.33064,-687.53471 878.13655,-685.18346 887.40302,-683.94412 C 894.66486,-681.73099 902.3979,-681.09523 910.14778,-679.64106 Z M 956.25204,-723.28642 C 955.40755,-724.42069 958.29081,-723.926 956.25204,-723.28642 Z"
       fill-rule="evenodd"
       fill="#000000"
       stroke="#ffffff"
       id="path926"
       style="stroke-width:0.808387;stroke-miterlimit:4;stroke-dasharray:none" />
    <path
       d="M 718.3541,-680.25578 C 728.52187,-685.82049 739.775,-688.76489 750.93443,-691.93553 C 760.2834,-693.76018 769.35997,-696.24245 779.21171,-696.85331 C 786.537,-698.29168 794.16675,-698.99507 801.95647,-699.31221 C 809.79722,-700.08575 817.78734,-700.49863 825.93068,-700.54165 C 821.83895,-705.61315 830.1283,-707.78917 833.92209,-707.91834 C 840.801,-709.297 835.37505,-710.18391 830.84847,-709.76251 C 817.62217,-710.11826 804.86126,-709.35047 792.1209,-708.53306 C 783.88688,-707.59957 775.78368,-706.35023 767.53197,-705.45944 C 758.85559,-703.57993 750.18534,-701.68568 741.71358,-699.31221 C 734.50288,-696.82336 726.27541,-694.48045 720.19827,-690.70608 C 723.30417,-684.48843 711.19835,-686.17446 716.50993,-682.09995 C 717.12465,-681.48523 717.73938,-680.8705 718.3541,-680.25578 Z"
       fill-rule="evenodd"
       fill="#000000"
       stroke="#ffffff"
       id="path928"
       style="stroke-width:0.808387;stroke-miterlimit:4;stroke-dasharray:none" />
    <path
       d="M 698.06823,-685.17357 C 705.23334,-685.80438 713.57587,-683.59264 719.58354,-687.01774 C 720.33092,-691.25209 716.39826,-696.57514 714.05103,-697.46804 C 702.0767,-697.08179 690.96199,-698.77083 679.62652,-699.92693 C 670.61663,-701.58081 661.45241,-702.86208 652.5787,-704.84472 C 642.48855,-706.689 632.61782,-709.06304 623.07198,-712.2214 C 615.34376,-714.80955 607.08214,-718.01715 601.55666,-724.51587 C 594.81279,-717.70859 603.6026,-709.08 610.16279,-706.68889 C 620.68079,-701.27016 631.85452,-697.43439 643.35785,-694.39442 C 652.73377,-691.93524 662.39876,-690.17395 672.24984,-688.86191 C 680.56992,-686.88547 689.35884,-686.64602 698.06823,-685.17357 Z"
       fill-rule="evenodd"
       fill="#000000"
       stroke="#ffffff"
       id="path930"
       style="stroke-width:0.808387;stroke-miterlimit:4;stroke-dasharray:none" />
    <path
       d="M 719.58354,-691.3208 C 726.03953,-694.66686 734.26556,-697.52224 741.71358,-699.92693 C 751.22362,-702.26722 760.46805,-705.24876 770.60558,-706.07417 C 778.04225,-707.94329 786.11114,-708.28603 793.96507,-709.14778 C 806.90645,-710.46926 820.3792,-710.50792 833.92209,-710.37723 C 838.90903,-709.4312 824.96011,-714.37818 832.69264,-717.13919 C 839.43087,-719.33642 835.03895,-719.74331 830.23375,-720.2128 C 820.7571,-720.13075 811.63141,-719.20141 801.95647,-719.59808 C 795.8201,-718.46243 789.08398,-718.77474 782.90005,-717.75391 C 773.4518,-716.86855 764.34913,-715.14887 755.2375,-713.45085 C 744.01337,-710.64132 732.9815,-707.36765 722.65716,-702.38582 C 721.12593,-697.8299 712.06372,-698.84782 718.3541,-693.7797 C 718.06902,-692.74967 719.26828,-692.16906 719.58354,-691.3208 Z M 837.61043,-718.98336 C 841.30403,-720.2943 837.74191,-719.08925 837.61043,-718.98336 Z"
       fill-rule="evenodd"
       fill="#000000"
       stroke="#ffffff"
       id="path932"
       style="stroke-width:0.808387;stroke-miterlimit:4;stroke-dasharray:none" />
    <path
       d="M 985.75876,-691.3208 C 983.18587,-692.17184 977.73779,-701.13229 978.38208,-698.69748 C 977.48444,-700.97149 986.26896,-693.36979 985.75876,-691.3208 Z"
       fill-rule="evenodd"
       fill="#000000"
       stroke="#ffffff"
       id="path934"
       style="stroke-width:0.808387;stroke-miterlimit:4;stroke-dasharray:none" />
    <path
       d="M 909.53306,-693.7797 C 922.11607,-693.52807 934.3663,-694.07987 945.18702,-698.08276 C 951.97567,-700.87557 958.67741,-706.63634 956.86676,-715.29502 C 956.93041,-722.47499 954.92593,-729.68643 948.87536,-733.73672 C 951.36412,-727.4908 950.27703,-719.42599 943.95757,-715.90974 C 935.37773,-709.71965 924.6303,-708.76256 913.83613,-707.91834 C 902.66061,-707.48181 892.33031,-709.08586 881.87051,-710.37723 C 872.65492,-712.84881 863.08724,-714.47038 854.20796,-717.75391 C 849.89363,-719.38375 845.31395,-721.33495 840.68405,-718.98336 C 837.61247,-718.14675 829.8999,-717.84451 831.46319,-713.45085 C 839.93776,-707.67106 850.04497,-705.83276 859.74047,-703.00055 C 869.84034,-700.39524 880.15594,-698.31076 890.47664,-696.23859 C 896.70642,-695.08473 903.09708,-694.83357 909.53306,-693.7797 Z"
       fill-rule="evenodd"
       fill="#000000"
       stroke="#ffffff"
       id="path936"
       style="stroke-width:0.808387;stroke-miterlimit:4;stroke-dasharray:none" />
    <path
       d="M 701.75657,-698.08276 C 708.49749,-698.63066 717.32086,-696.29763 721.42771,-701.7711 C 721.6347,-706.91441 718.76985,-712.03579 712.82159,-710.37723 C 700.34089,-709.96278 688.87767,-712.00475 677.16763,-713.45085 C 668.07122,-714.89584 659.14668,-716.75575 650.1198,-718.36863 C 640.03448,-720.71926 629.66016,-722.37219 619.99836,-725.74531 C 614.35187,-727.73815 608.71628,-731.4486 605.245,-736.19561 C 598.52223,-731.24101 602.02748,-721.55812 608.93334,-718.98336 C 618.04855,-713.76082 628.20106,-711.04253 638.44006,-708.53306 C 648.30216,-706.05332 658.47112,-704.31443 668.5615,-702.38582 C 678.51593,-700.94861 688.3047,-699.11148 698.68295,-698.69748 C 699.75499,-698.62281 700.87648,-698.99735 701.75657,-698.08276 Z"
       fill-rule="evenodd"
       fill="#000000"
       stroke="#ffffff"
       id="path938"
       style="stroke-width:0.808387;stroke-miterlimit:4;stroke-dasharray:none" />
    <path
       d="M 722.04244,-703.00055 C 721.5542,-706.84429 716.91414,-711.89005 723.88661,-711.60668 C 730.43019,-718.09079 739.36537,-718.80104 747.24609,-722.05697 C 757.23972,-724.50895 767.31227,-726.77036 777.98226,-727.58948 C 798.3993,-730.361 820.44658,-729.19675 841.91349,-729.43365 C 849.44325,-729.48281 846.77859,-728.83575 841.91349,-725.74531 C 843.22681,-720.96379 848.67474,-719.87338 840.68405,-720.2128 C 832.21984,-720.43715 823.83291,-721.40761 815.48039,-720.2128 C 805.28791,-720.66463 795.89076,-719.19637 785.97367,-718.98336 C 778.88218,-717.765 771.57324,-717.07162 764.45835,-715.90974 C 754.1999,-713.77214 744.0067,-711.47703 734.3369,-707.91834 C 730.16468,-706.39158 726.39808,-704.51379 722.04244,-703.00055 Z"
       fill-rule="evenodd"
       fill="#000000"
       stroke="#ffffff"
       id="path940"
       style="stroke-width:0.808387;stroke-miterlimit:4;stroke-dasharray:none" />
    <path
       d="M 901.54166,-708.53306 C 915.83525,-708.22929 929.75688,-708.8235 941.49868,-714.68029 C 947.44681,-717.93851 951.272,-724.38391 948.87536,-731.27782 C 948.0584,-734.76394 944.54964,-741.21277 941.49868,-741.1134 C 942.77746,-731.95631 932.34892,-727.2553 925.51587,-725.74531 C 916.00969,-722.44148 905.07385,-722.58913 894.16498,-722.6717 C 886.8237,-723.98662 878.95421,-724.02631 872.03494,-726.36004 C 867.14382,-727.56901 862.4474,-729.24797 857.8963,-731.27782 C 852.96798,-729.018 845.9857,-729.5013 842.52822,-725.13059 C 844.47393,-720.33079 851.19085,-719.86606 855.43741,-717.75391 C 864.95418,-715.22493 874.2916,-712.26301 884.3294,-710.99195 C 889.72588,-709.34282 895.82908,-709.83077 901.54166,-708.53306 Z"
       fill-rule="evenodd"
       fill="#000000"
       stroke="#ffffff"
       id="path942"
       style="stroke-width:0.808387;stroke-miterlimit:4;stroke-dasharray:none" />
    <path
       d="M 701.14184,-710.99195 C 709.64983,-711.96362 720.06673,-708.32681 726.3455,-714.68029 C 726.40343,-719.18376 725.23178,-724.3185 719.58354,-722.6717 C 706.45449,-722.17607 694.29596,-724.02346 682.08542,-725.74531 C 671.90237,-727.2453 661.93799,-729.2732 651.96397,-731.27782 C 641.5504,-733.53559 630.88591,-735.1876 621.22781,-739.26923 C 616.83123,-739.9515 614.08097,-748.9097 611.39223,-746.64591 C 604.75302,-743.70036 604.51007,-734.46762 610.77751,-731.27782 C 619.76983,-724.76921 630.89456,-723.4087 641.51368,-720.82753 C 651.35016,-718.98555 660.974,-716.63022 671.0204,-715.29502 C 679.83116,-713.57023 688.83459,-712.31056 698.06823,-711.60668 C 699.14026,-711.532 700.26176,-711.90656 701.14184,-710.99195 Z"
       fill-rule="evenodd"
       fill="#000000"
       stroke="#ffffff"
       id="path944"
       style="stroke-width:0.808387;stroke-miterlimit:4;stroke-dasharray:none" />
    <path
       d="M 983.29986,-710.99195 C 993.99124,-710.0845 999.65942,-721.41631 1001.1268,-730.04838 C 1003.5528,-736.29678 999.46271,-743.01899 994.97961,-746.64591 C 994.59578,-738.03706 989.44524,-728.66624 980.84097,-725.74531 C 971.81146,-723.73626 963.73284,-729.01868 955.63731,-731.27782 C 949.58232,-734.95621 955.47351,-725.99834 957.48148,-723.90114 C 962.38444,-718.74931 970.01957,-717.51901 975.92318,-713.45085 C 978.47413,-712.97973 980.63324,-711.66896 983.29986,-710.99195 Z"
       fill-rule="evenodd"
       fill="#000000"
       stroke="#ffffff"
       id="path946"
       style="stroke-width:0.808387;stroke-miterlimit:4;stroke-dasharray:none" />
    <path
       d="M 726.96022,-715.29502 C 727.11419,-719.39278 722.69955,-723.97888 729.41912,-723.28642 C 733.69925,-725.26983 734.14927,-729.91073 739.25469,-730.6631 C 747.15425,-733.42862 754.95937,-736.4221 763.84363,-736.81033 C 770.85633,-738.30378 778.30515,-738.74435 785.97367,-738.6545 C 798.98994,-740.08496 813.10516,-738.86233 826.54541,-739.26923 C 836.40458,-739.41107 845.68915,-738.16571 855.43741,-738.03978 C 851.24762,-733.97167 861.55177,-730.3785 852.97851,-730.6631 C 847.36808,-728.26495 840.49998,-730.96397 833.92209,-730.04838 C 826.29355,-729.84016 819.73734,-730.83937 812.40677,-730.04838 C 799.67853,-730.48087 787.71712,-729.0621 775.52337,-728.20421 C 766.17856,-726.6593 756.7224,-725.38323 747.86082,-722.6717 C 740.62282,-720.80509 733.96955,-718.1513 726.96022,-715.29502 Z"
       fill-rule="evenodd"
       fill="#000000"
       stroke="#ffffff"
       id="path948"
       style="stroke-width:0.808387;stroke-miterlimit:4;stroke-dasharray:none" />
    <path
       d="M 705.44491,-723.28642 C 714.47821,-724.06413 724.98469,-721.28528 732.49273,-725.74531 C 734.10271,-728.98652 732.11787,-735.7014 730.03384,-736.19561 C 719.9155,-733.46268 708.44529,-735.72633 698.06823,-736.19561 C 689.32925,-737.80392 680.33331,-738.7919 671.63512,-740.49867 C 661.07332,-742.68837 650.30408,-744.37723 640.28423,-747.87535 C 634.88041,-749.98554 626.54504,-752.45665 625.53087,-759.5551 C 620.07968,-757.71089 610.17695,-751.96195 615.08057,-744.80174 C 622.78995,-736.96967 633.39779,-736.13516 643.35785,-733.73672 C 653.50102,-731.44087 663.8149,-729.55713 674.09401,-727.58948 C 684.11556,-726.31431 693.77166,-724.15689 704.21546,-723.90114 L 705.34476,-723.33649 Z"
       fill-rule="evenodd"
       fill="#000000"
       stroke="#ffffff"
       id="path950"
       style="stroke-width:0.808387;stroke-miterlimit:4;stroke-dasharray:none" />
    <path
       d="M 894.16498,-723.28642 C 908.71176,-723.07099 923.02706,-723.4144 934.73672,-730.04838 C 941.67097,-732.94256 943.02003,-742.12066 937.19561,-746.64591 C 932.77748,-751.39005 929.86395,-748.9106 926.74532,-744.18701 C 918.89823,-739.81075 910.07695,-737.78642 900.31221,-738.03978 C 895.64248,-736.22142 890.66787,-738.86877 885.55885,-738.03978 C 879.77047,-739.35111 873.72895,-740.05128 868.3466,-742.34284 C 863.94871,-740.07286 856.75039,-740.34054 854.82268,-734.96616 C 860.08236,-728.9233 869.01636,-728.23641 876.338,-725.74531 C 882.15574,-724.57362 888.12843,-724.35853 894.16498,-723.28642 Z"
       fill-rule="evenodd"
       fill="#000000"
       stroke="#ffffff"
       id="path952"
       style="stroke-width:0.808387;stroke-miterlimit:4;stroke-dasharray:none" />
    <path
       d="M 974.69374,-725.74531 C 986.42083,-724.58907 993.97463,-736.45571 994.36489,-746.64591 C 994.90833,-752.42312 992.02751,-757.6653 987.60293,-760.78454 C 987.81693,-750.68257 981.59791,-739.37501 971.0054,-738.03978 C 959.41814,-737.05422 950.6026,-742.76016 940.26923,-744.80174 C 944.56809,-740.02662 948.5095,-733.34581 955.02259,-732.50727 C 961.30251,-729.54423 967.7508,-727.52027 974.69374,-725.74531 Z"
       fill-rule="evenodd"
       fill="#000000"
       stroke="#ffffff"
       id="path954"
       style="stroke-width:0.808387;stroke-miterlimit:4;stroke-dasharray:none" />
    <path
       d="M 733.72218,-728.81893 C 733.60453,-732.47822 729.22753,-738.00274 735.56635,-738.03978 C 746.09137,-738.91908 755.83841,-741.67659 765.6878,-744.18701 C 774.83508,-746.41371 783.02386,-750.95443 793.35035,-750.33425 C 799.54497,-749.04948 806.71234,-750.11308 813.02149,-749.1048 C 824.37958,-749.40252 834.93959,-747.77347 846.21656,-747.87535 C 852.08416,-746.38063 859.06349,-747.56985 864.65826,-745.41646 C 870.78083,-741.16045 860.9211,-741.59361 858.51102,-739.26923 C 851.58217,-737.50159 844.37254,-740.08935 836.99571,-739.26923 C 823.97942,-740.69967 809.86421,-739.47706 796.42396,-739.88395 C 785.43785,-740.0681 775.09861,-738.69059 764.45835,-738.03978 C 756.48179,-736.44956 748.44056,-735.01547 741.09886,-731.89255 C 738.59591,-730.92955 736.30787,-729.97608 733.72218,-728.81893 Z"
       fill-rule="evenodd"
       fill="#000000"
       stroke="#ffffff"
       id="path956"
       style="stroke-width:0.808387;stroke-miterlimit:4;stroke-dasharray:none" />
    <path
       d="M 710.36269,-735.58089 C 718.1234,-736.34951 728.38912,-733.20056 733.10746,-739.88395 C 733.09344,-747.71435 730.23045,-754.36468 731.26329,-762.62871 C 730.98811,-768.62681 729.46883,-774.10958 730.03384,-780.45569 C 735.98975,-778.92512 731.93406,-770.98024 731.87801,-766.93178 C 727.93206,-765.33556 731.29439,-758.6066 729.41912,-755.25203 C 725.86315,-746.48615 714.86742,-748.89233 706.67435,-748.49008 C 700.4321,-749.57501 693.81685,-749.75944 687.61793,-750.94897 C 676.94887,-752.67481 666.21674,-754.24841 656.26704,-757.71093 C 650.69152,-759.88773 642.00955,-762.05084 640.89895,-769.39067 C 635.44431,-767.38708 626.44167,-765.25182 626.14559,-757.71093 C 631.93505,-749.44452 642.04902,-748.11835 650.73453,-745.41646 C 660.32256,-743.46935 669.76773,-741.17738 679.62652,-739.88395 C 688.42145,-738.12093 697.48111,-736.99701 706.67435,-736.19561 C 707.92533,-736.07604 709.32269,-736.57754 710.36269,-735.58089 Z"
       fill-rule="evenodd"
       fill="#000000"
       stroke="#ffffff"
       id="path958"
       style="stroke-width:0.808387;stroke-miterlimit:4;stroke-dasharray:none" />
    <path
       d="M 894.16498,-738.03978 C 904.30413,-738.45146 914.39605,-738.97714 923.05698,-742.95757 C 928.70529,-744.09366 933.90473,-752.77452 926.74532,-755.86676 C 922.27217,-758.04946 915.61798,-760.39491 910.76251,-757.71093 C 903.20711,-753.68878 892.55351,-754.17847 883.71468,-755.25203 C 877.3519,-752.8282 869.24573,-752.54524 864.65826,-747.26063 C 866.97452,-741.34062 874.57981,-741.10746 880.02634,-739.88395 C 884.3495,-738.28389 889.52638,-739.28185 894.16498,-738.03978 Z"
       fill-rule="evenodd"
       fill="#000000"
       stroke="#ffffff"
       id="path960"
       style="stroke-width:0.808387;stroke-miterlimit:4;stroke-dasharray:none" />
    <path
       d="M 963.62872,-738.6545 C 972.16856,-737.564 980.86926,-740.33527 983.91459,-748.49008 C 987.83057,-755.47139 989.02308,-766.84583 982.68514,-773.07901 C 978.86473,-779.48842 981.07077,-769.22157 979.61152,-766.93178 C 978.11738,-756.4827 968.39102,-747.2834 956.86676,-749.1048 C 946.6926,-750.25157 937.62998,-754.08187 927.97476,-756.48148 C 930.4322,-752.3041 931.75961,-749.33921 936.58089,-747.87535 C 943.16969,-743.80412 951.02033,-742.77928 958.09621,-739.88395 C 960.06503,-739.8492 961.72434,-739.26079 963.62872,-738.6545 Z M 927.36004,-756.48148 C 928.36644,-757.26089 923.51413,-756.98369 927.36004,-756.48148 Z"
       fill-rule="evenodd"
       fill="#000000"
       stroke="#ffffff"
       id="path962"
       style="stroke-width:0.808387;stroke-miterlimit:4;stroke-dasharray:none" />
    <path
       d="M 861.58464,-746.64591 C 865.54174,-746.70456 867.24567,-752.27321 872.03494,-752.17842 C 877.04416,-754.03757 873.45033,-753.86944 867.73187,-754.02259 C 859.71016,-755.26375 851.53124,-756.12536 843.14294,-756.48148 C 835.11474,-757.50206 826.90409,-758.08218 818.554,-758.32565 C 813.65263,-759.6796 807.83367,-758.81829 803.18592,-760.78454 C 797.13744,-757.88232 790.07393,-757.43064 784.74422,-752.79314 C 787.49221,-749.91723 793.45606,-751.14378 797.65341,-750.33425 C 806.8528,-750.57222 815.40283,-749.2425 824.70124,-749.71952 C 830.34926,-748.59918 836.70871,-749.1964 842.52822,-748.49008 C 848.86125,-747.82991 855.31511,-747.91012 861.58464,-746.64591 Z"
       fill-rule="evenodd"
       fill="#000000"
       stroke="#ffffff"
       id="path964"
       style="stroke-width:0.808387;stroke-miterlimit:4;stroke-dasharray:none" />
    <path
       d="M 706.67435,-749.1048 C 714.53344,-749.61717 725.32478,-746.9953 728.80439,-755.25203 C 729.37439,-761.3133 730.35526,-767.75486 729.41912,-773.69373 C 728.92511,-775.65709 729.00273,-784.06315 728.18967,-781.68514 C 731.14958,-778.22565 727.39682,-773.46899 726.3455,-770.00539 C 721.38941,-760.41948 708.61323,-763.02628 698.68295,-762.62871 C 691.57412,-764.0101 683.90174,-764.03099 677.16763,-766.31705 C 669.81087,-768.15874 661.66786,-770.14461 656.88176,-776.76735 C 656.83146,-782.54282 650.96554,-776.65102 647.66091,-776.15263 C 642.22772,-774.01267 638.85957,-767.05139 645.20202,-763.24344 C 654.03978,-758.25558 663.82177,-755.54731 674.09401,-754.02259 C 682.07847,-752.28169 690.18656,-750.83926 698.68295,-750.33425 C 700.74819,-748.66393 704.41506,-750.7473 706.67435,-749.1048 Z M 728.18967,-783.52931 C 728.8494,-785.08477 726.52432,-785.48107 728.18967,-783.52931 Z"
       fill-rule="evenodd"
       fill="#000000"
       stroke="#ffffff"
       id="path966"
       style="stroke-width:0.808387;stroke-miterlimit:4;stroke-dasharray:none" />
    <path
       d="M 955.02259,-749.71952 C 964.49733,-748.44558 974.17184,-752.37112 977.15263,-761.39927 C 980.79931,-769.71892 981.48443,-782.35037 974.07901,-789.06182 C 971.75533,-791.98227 973.28478,-782.83139 972.84957,-780.45569 C 971.41752,-771.00383 965.17842,-760.09698 954.40787,-759.5551 C 947.81891,-757.62923 941.0646,-760.64941 934.73672,-761.39927 C 926.02732,-764.10355 917.24315,-766.62732 908.30361,-768.77595 C 898.55873,-771.74359 888.38896,-773.68542 878.18217,-775.5379 C 868.36523,-777.01722 858.71678,-778.90336 848.67545,-779.84097 C 840.99882,-781.74546 832.51559,-781.70268 825.31596,-784.75876 C 821.24367,-783.72038 815.38532,-778.374 822.85707,-777.38207 C 830.73703,-775.38889 838.95542,-774.21274 847.446,-773.69373 C 854.45874,-772.28523 861.79336,-771.65388 868.96132,-770.62012 C 878.64229,-769.10231 888.27491,-767.46777 897.85332,-765.70233 C 903.30411,-766.85967 911.29708,-766.96924 914.45085,-762.01399 C 917.75022,-759.18065 923.78952,-759.23618 927.97476,-757.0962 C 937.03764,-754.69674 945.58199,-751.63027 955.02259,-749.71952 Z"
       fill-rule="evenodd"
       fill="#000000"
       stroke="#ffffff"
       id="path968"
       style="stroke-width:0.808387;stroke-miterlimit:4;stroke-dasharray:none" />
    <path
       d="M 872.64966,-754.02259 C 875.73441,-753.60162 884.76046,-754.47634 878.79689,-757.0962 C 878.45458,-761.75309 874.98566,-761.70223 870.19077,-762.01399 C 861.29025,-763.31718 852.2927,-764.38613 843.14294,-765.08761 C 833.99572,-766.49481 824.356,-766.71301 815.48039,-768.77595 C 810.64055,-769.75133 805.74507,-765.9392 801.34175,-763.85816 C 800.57337,-760.01392 807.8398,-760.37369 811.17732,-760.16982 C 818.52508,-758.99057 826.10251,-758.36583 833.92209,-758.32565 C 840.47373,-757.20318 847.37409,-756.92259 854.20796,-756.48148 C 860.19858,-755.29056 866.5921,-755.43534 872.64966,-754.02259 Z M 881.87051,-755.86676 C 881.55315,-753.97881 883.75845,-756.18411 881.87051,-755.86676 Z"
       fill-rule="evenodd"
       fill="#000000"
       stroke="#ffffff"
       id="path970"
       style="stroke-width:0.808387;stroke-miterlimit:4;stroke-dasharray:none" />
    <path
       d="M 885.55885,-755.25203 C 895.6159,-755.56257 907.52868,-753.46494 913.83613,-761.39927 C 911.83398,-766.58806 904.31396,-765.44973 899.08276,-765.70233 C 891.95965,-764.03045 884.0945,-764.15005 878.18217,-759.5551 C 878.04197,-756.02409 883.43018,-756.74382 885.55885,-755.25203 Z"
       fill-rule="evenodd"
       fill="#000000"
       stroke="#ffffff"
       id="path972"
       style="stroke-width:0.808387;stroke-miterlimit:4;stroke-dasharray:none" />
    <path
       d="M 923.6717,-757.71093 C 923.87661,-757.71093 923.87661,-757.71093 923.6717,-757.71093 Z"
       fill-rule="evenodd"
       fill="#000000"
       stroke="#ffffff"
       id="path974"
       style="stroke-width:0.808387;stroke-miterlimit:4;stroke-dasharray:none" />
    <path
       d="M 921.82753,-758.32565 C 922.03244,-758.32565 922.03244,-758.32565 921.82753,-758.32565 Z"
       fill-rule="evenodd"
       fill="#000000"
       stroke="#ffffff"
       id="path976"
       style="stroke-width:0.808387;stroke-miterlimit:4;stroke-dasharray:none" />
    <path
       d="M 918.13919,-758.94037 C 916.70093,-760.27005 909.99551,-760.82543 918.13919,-758.94037 Z M 918.75391,-759.5551 C 919.0618,-758.15539 922.06043,-759.25654 918.75391,-759.5551 Z"
       fill-rule="evenodd"
       fill="#000000"
       stroke="#ffffff"
       id="path978"
       style="stroke-width:0.808387;stroke-miterlimit:4;stroke-dasharray:none" />
    <path
       d="M 947.03119,-759.5551 C 957.69663,-758.29318 968.04865,-764.12327 970.39067,-774.30846 C 973.0126,-780.7608 973.01322,-790.28402 971.0054,-797.05322 C 967.34616,-802.53813 964.14136,-801.69435 965.47289,-795.20905 C 965.47118,-784.93217 961.24714,-773.94028 951.33425,-770.00539 C 943.53847,-766.02336 933.35764,-768.95651 925.51587,-770.62012 C 915.31443,-773.39002 905.2481,-776.48612 894.7797,-778.61152 C 885.57528,-780.99005 876.16011,-782.85978 866.50243,-784.14403 C 857.83316,-785.92063 848.83904,-786.913 840.06932,-788.4471 C 835.44361,-788.75563 830.58373,-791.16366 826.54541,-790.90599 C 819.99793,-787.90417 826.1397,-783.88471 830.23375,-783.52931 C 838.85199,-782.3291 847.24487,-780.58482 856.05213,-779.84097 C 864.27926,-777.98633 873.04602,-777.43446 881.25579,-775.5379 C 891.55704,-773.91346 901.43992,-771.279 911.37723,-768.77595 C 921.41766,-766.11204 931.1698,-762.75208 941.49868,-760.78454 C 943.10073,-759.60936 945.31334,-760.79816 947.03119,-759.5551 Z"
       fill-rule="evenodd"
       fill="#000000"
       stroke="#ffffff"
       id="path980"
       style="stroke-width:0.808387;stroke-miterlimit:4;stroke-dasharray:none" />
    <path
       d="M 877.56745,-761.39927 C 882.98696,-761.91214 887.30407,-765.08643 892.93553,-765.08761 C 897.8284,-765.93235 889.80148,-766.64111 886.17357,-766.93178 C 877.85962,-769.07151 868.9032,-769.66017 860.35519,-771.23484 C 851.44437,-772.01847 842.92319,-773.74278 833.92209,-774.30846 C 829.55214,-775.66622 824.65672,-775.75537 820.39817,-777.38207 C 818.03128,-775.81828 808.36091,-773.49533 813.63622,-770.00539 C 821.79228,-767.68939 830.69252,-767.16999 839.4546,-766.31705 C 848.64695,-765.22372 857.85992,-764.18015 867.11715,-763.24344 C 870.51167,-762.36936 874.11186,-762.54824 877.56745,-761.39927 Z"
       fill-rule="evenodd"
       fill="#000000"
       stroke="#ffffff"
       id="path982"
       style="stroke-width:0.808387;stroke-miterlimit:4;stroke-dasharray:none" />
    <path
       d="M 698.68295,-763.24344 C 709.14759,-763.48523 723.39202,-761.03352 726.96022,-772.46429 C 728.4679,-776.75268 729.00959,-783.52184 725.73078,-786.60293 C 724.79346,-777.79895 714.54888,-776.53571 707.28908,-776.15263 C 696.24683,-776.48282 685.58664,-777.73541 676.55291,-782.91459 C 671.91752,-784.54097 672.49739,-792.81528 667.33206,-787.83237 C 662.11146,-786.7726 653.28547,-780.76311 658.72593,-774.92318 C 667.76452,-768.0316 678.83916,-766.05544 690.07682,-764.47288 C 692.82296,-763.67387 695.89171,-764.31818 698.68295,-763.24344 Z"
       fill-rule="evenodd"
       fill="#000000"
       stroke="#ffffff"
       id="path984"
       style="stroke-width:0.808387;stroke-miterlimit:4;stroke-dasharray:none" />
    <path
       d="M 731.87801,-763.24344 C 731.95688,-766.37395 733.95085,-771.58381 732.65574,-767.52093 C 732.3965,-766.0951 732.13725,-764.66927 731.87801,-763.24344 Z"
       fill-rule="evenodd"
       fill="#000000"
       stroke="#ffffff"
       id="path986"
       style="stroke-width:0.808387;stroke-miterlimit:4;stroke-dasharray:none" />
    <path
       d="M 936.58089,-768.77595 C 946.39056,-767.69989 955.76186,-770.21064 960.5551,-778.61152 C 964.93612,-785.817 965.69099,-795.62443 964.24344,-804.4299 C 963.41754,-807.69794 955.22778,-814.55635 957.48148,-807.50352 C 958.45922,-796.80537 955.53352,-786.16053 945.80174,-781.07042 C 937.44318,-777.0065 927.23652,-780.37671 918.75391,-781.68514 C 909.74458,-784.44977 900.43654,-786.49328 891.09136,-788.4471 C 881.73228,-790.45226 872.48217,-792.72048 862.81409,-793.97961 C 853.46252,-796.00288 843.77289,-797.21004 834.53681,-799.51212 C 831.99219,-799.83771 823.73777,-796.9867 825.93068,-792.75016 C 834.08821,-789.3283 843.38637,-788.66013 852.36379,-787.21765 C 861.44262,-785.93511 870.24843,-783.99347 879.41162,-782.91459 C 888.52259,-780.39533 898.12393,-779.05992 907.07417,-776.15263 C 916.99425,-773.85187 926.35376,-770.76446 936.58089,-768.77595 Z M 956.25204,-811.19186 V -811.80658 Z"
       fill-rule="evenodd"
       fill="#000000"
       stroke="#ffffff"
       id="path988"
       style="stroke-width:0.808387;stroke-miterlimit:4;stroke-dasharray:none" />
    <path
       d="M 701.14184,-776.76735 C 710.08435,-776.85481 720.82195,-776.24496 725.11605,-784.75876 C 726.66223,-789.65103 725.10496,-796.2002 720.81299,-798.28267 C 717.28545,-789.65431 705.25294,-791.82158 698.06823,-793.36488 C 693.14955,-793.21285 692.46983,-801.21565 688.23265,-798.89739 C 682.19017,-797.52901 674.42623,-795.69413 672.24984,-789.06182 C 675.28618,-780.89023 685.24784,-780.06182 692.53572,-777.9968 C 695.39243,-777.55223 698.30655,-777.65986 701.14184,-776.76735 Z"
       fill-rule="evenodd"
       fill="#000000"
       stroke="#ffffff"
       id="path990"
       style="stroke-width:0.808387;stroke-miterlimit:4;stroke-dasharray:none" />
    <path
       d="M 931.04838,-779.84097 C 940.67386,-778.77532 950.815,-781.5712 954.40787,-790.90599 C 957.2874,-796.67858 957.99279,-805.48143 955.63731,-811.80658 C 953.26461,-816.00199 946.86527,-819.75981 950.1048,-812.42131 C 950.658,-801.02261 940.97258,-791.23929 929.20421,-792.75016 C 919.24756,-792.90283 910.41104,-795.75974 900.92693,-797.05322 C 892.41259,-799.11897 883.56916,-800.39025 875.10855,-802.58573 C 865.04901,-804.99862 854.58253,-806.42903 844.98711,-809.96241 C 840.56723,-809.61814 834.00198,-807.2235 830.84847,-803.20046 C 834.79794,-798.0283 842.88309,-799.21185 848.67545,-797.05322 C 857.66342,-796.04602 866.12059,-793.75737 875.10855,-792.75016 C 883.93191,-790.23613 893.27548,-788.97805 902.15638,-786.60293 C 911.80686,-784.31625 921.10403,-781.85359 931.04838,-779.84097 Z M 948.26063,-817.33909 V -817.95382 Z"
       fill-rule="evenodd"
       fill="#000000"
       stroke="#ffffff"
       id="path992"
       style="stroke-width:0.808387;stroke-miterlimit:4;stroke-dasharray:none" />
    <path
       d="M 702.37129,-792.75016 C 709.08682,-792.77245 720.02503,-791.23626 720.19827,-800.12684 C 716.28314,-808.17864 703.95977,-805.94742 696.83878,-803.81518 C 691.43353,-802.42498 690.64264,-796.20758 696.22406,-794.59433 C 698.39134,-794.33472 700.18463,-793.40363 702.37129,-792.75016 Z"
       fill-rule="evenodd"
       fill="#000000"
       stroke="#ffffff"
       id="path994"
       style="stroke-width:0.808387;stroke-miterlimit:4;stroke-dasharray:none" />
    <path
       d="M 924.28642,-793.36488 C 933.86346,-792.50013 944.60376,-794.20537 947.64591,-803.81518 C 951.75704,-810.33796 948.85676,-820.79971 940.88395,-822.8716 C 944.09017,-814.42112 935.04757,-807.11003 927.36004,-806.8888 C 918.86029,-805.10139 909.73225,-807.1157 901.54166,-808.11824 C 891.28031,-809.63409 881.35855,-811.96982 871.42021,-814.26548 C 865.66982,-815.58362 860.47061,-818.23247 854.82268,-819.79799 C 850.70558,-817.84407 844.08366,-817.70353 842.52822,-812.42131 C 849.69819,-807.48462 858.74614,-807.08176 867.11715,-805.04463 C 876.89831,-802.86417 886.49947,-800.24917 896.62387,-798.89739 C 905.73267,-796.72391 914.88056,-795.2536 924.28642,-793.36488 Z"
       fill-rule="evenodd"
       fill="#000000"
       stroke="#ffffff"
       id="path996"
       style="stroke-width:0.808387;stroke-miterlimit:4;stroke-dasharray:none" />
    <path
       d="M 913.83613,-806.8888 C 924.42655,-806.37898 937.21887,-806.52763 940.88395,-817.33909 C 942.0534,-823.99014 935.79851,-828.33358 930.43366,-829.63356 C 932.85231,-822.89841 923.7513,-818.97821 918.13919,-819.18326 C 909.77728,-817.23101 901.08624,-819.81113 892.93553,-820.41271 C 883.59532,-822.99325 873.5123,-823.7805 865.27298,-829.01884 C 861.69437,-827.3335 855.22271,-826.76295 854.82268,-821.64216 C 862.98343,-816.00923 872.94489,-814.72361 882.48523,-812.42131 C 891.91033,-810.28578 901.45333,-808.43484 911.37723,-807.50352 C 912.28578,-807.50773 913.08483,-807.64664 913.83613,-806.8888 Z"
       fill-rule="evenodd"
       fill="#000000"
       stroke="#ffffff"
       id="path998"
       style="stroke-width:0.808387;stroke-miterlimit:4;stroke-dasharray:none" />
    <path
       d="M 906.45944,-819.18326 C 915.26684,-819.31717 926.24671,-818.10233 930.43366,-826.55994 C 929.78483,-834.0583 921.14838,-836.50626 915.06557,-837.62496 C 911.73322,-829.13874 900.23555,-832.64946 892.93553,-832.70718 C 888.00919,-834.5307 882.16406,-834.13608 878.18217,-838.23969 C 873.64935,-836.28928 866.44052,-836.59431 864.65826,-830.86301 C 870.51182,-824.98605 879.97764,-824.28478 888.01774,-822.25688 C 893.99821,-820.77745 900.21275,-820.41173 906.45944,-819.18326 Z M 913.83613,-837.62496 V -838.23969 Z"
       fill-rule="evenodd"
       fill="#000000"
       stroke="#ffffff"
       id="path1000"
       style="stroke-width:0.808387;stroke-miterlimit:4;stroke-dasharray:none" />
    <path
       d="M 897.23859,-832.70718 C 902.98429,-833.19653 911.59843,-830.90602 913.83613,-837.01024 C 907.72134,-843.9257 896.95022,-843.09856 887.40302,-843.15747 C 884.78076,-841.92269 875.63683,-842.21466 879.41162,-837.62496 C 884.73547,-834.47849 891.06235,-834.22239 897.23859,-832.70718 Z"
       fill-rule="evenodd"
       fill="#000000"
       stroke="#ffffff"
       id="path1002"
       style="stroke-width:0.808387;stroke-miterlimit:4;stroke-dasharray:none" />
  </g>
</svg>
